M48
;Layer_Color=6321
;FILE_FORMAT=2:4
INCH,LZ
;TYPE=PLATED
T1F00S00C0.0100
T2F00S00C0.0150
T3F00S00C0.0350
T4F00S00C0.0354
T5F00S00C0.0394
T6F00S00C0.0400
;TYPE=NON_PLATED
T7F00S00C0.0866
%
T01
X025053Y032003
X025447Y032003
X025447Y032397
X02525Y0322
X025053Y032397
X02895Y03235
X028753Y032645
X029147
Y032055
X028753
X032503Y032146
Y0325
Y032854
X032897
Y0325
Y032146
T02
X0317Y03035
X0318Y03095
X03285Y03005
X0338Y03065
X03475Y03035
X02955Y02995
X0273Y0311
X025845Y030155
X02525Y0301
X02415Y0312
X02445Y03145
Y03325
X02535Y03345
X0257Y0332
X02535Y0344
X02375Y0338
X02305Y03435
X0223Y0334
X0224Y0329
X0264Y032148
Y0316
X02795Y032547
X0277Y03335
X0273Y03325
X0279Y03385
X02785Y03465
X0308Y0344
X02995Y03335
X03Y033
X0323Y0336
X032621Y03385
X03325
X03375Y03415
X03205Y03445
X0317Y03465
X0333Y0313
T03
X02025Y0322
X02125
X02225
T04
X0345Y031858
Y032842
T05
X0318Y0293
X0328
X0338
X0348
X0308
X0298
X0288
X0278
X0268
X0258
X0248
X0238
X0228
X0218
Y0353
X0228
X0238
X0248
X0258
X0268
X0278
X0288
X0298
X0308
X0318
X0328
X0338
X0348
T06
X02045Y03085
X02145
Y03355
X02045
T07
X03605Y02955
X02055
Y03505
X03605
M30
