G04 Layer_Color=7318015*
%FSLAX24Y24*%
%MOIN*%
G70*
G01*
G75*
%ADD10R,0.0394X0.0413*%
%ADD11R,0.0295X0.0335*%
%ADD12R,0.0413X0.0394*%
%ADD13C,0.0500*%
%ADD14R,0.0670X0.0450*%
%ADD15R,0.0315X0.0315*%
%ADD19R,0.0335X0.0295*%
%ADD20R,0.0591X0.0354*%
%ADD21R,0.0532X0.0610*%
%ADD23R,0.0276X0.0335*%
%ADD24R,0.0335X0.0276*%
%ADD25R,0.0374X0.0335*%
%ADD26R,0.0110X0.0276*%
%ADD28R,0.0413X0.0374*%
%ADD29R,0.0374X0.0413*%
%ADD30R,0.1181X0.0236*%
%ADD50C,0.0079*%
%ADD52R,0.0276X0.0276*%
%ADD53R,0.0276X0.0276*%
%ADD54R,0.0268X0.0413*%
%ADD55R,0.0102X0.0197*%
%ADD56R,0.0315X0.0394*%
%ADD57R,0.0207X0.0098*%
%ADD58R,0.0207X0.0098*%
%ADD59O,0.0091X0.0315*%
%ADD60O,0.0315X0.0091*%
%ADD61R,0.0000X0.0197*%
D10*
X32850Y30505D02*
D03*
Y31095D02*
D03*
X28900Y34045D02*
D03*
X29400Y30705D02*
D03*
Y31295D02*
D03*
X27900Y30705D02*
D03*
Y31295D02*
D03*
D03*
Y30705D02*
D03*
X29500Y33455D02*
D03*
Y34045D02*
D03*
D03*
Y33455D02*
D03*
D11*
X24214Y33700D02*
D03*
X24686D02*
D03*
D12*
X26745Y33250D02*
D03*
X26155Y33250D02*
D03*
D03*
X26745Y33250D02*
D03*
X25845Y30650D02*
D03*
X25255D02*
D03*
D03*
X25845D02*
D03*
X28900Y33455D02*
D03*
D13*
X31100Y30150D02*
D03*
Y31350D02*
D03*
D14*
X30350Y30130D02*
D03*
Y31370D02*
D03*
D15*
X24150Y30795D02*
D03*
Y30205D02*
D03*
X23700Y30805D02*
D03*
Y31395D02*
D03*
D19*
X28350Y34086D02*
D03*
Y33614D02*
D03*
D20*
X27110Y34395D02*
D03*
Y33805D02*
D03*
X25890Y34395D02*
D03*
Y33805D02*
D03*
D21*
X23616Y34350D02*
D03*
X24384D02*
D03*
D23*
X26658Y32700D02*
D03*
X27150D02*
D03*
X23704Y31850D02*
D03*
X24196D02*
D03*
X26204Y31100D02*
D03*
X26696D02*
D03*
D24*
X24650Y30204D02*
D03*
Y30696D02*
D03*
D25*
X23000Y31656D02*
D03*
Y31144D02*
D03*
X22850Y33144D02*
D03*
Y33656D02*
D03*
D26*
X28850Y32960D02*
D03*
X29050D02*
D03*
X28850Y31740D02*
D03*
X29050D02*
D03*
D28*
X28700Y31285D02*
D03*
Y30715D02*
D03*
D29*
X27885Y31950D02*
D03*
X27315D02*
D03*
D30*
X31050Y32031D02*
D03*
X31050Y33369D02*
D03*
D50*
X32306Y31604D02*
Y31841D01*
X32464Y31604D02*
Y31841D01*
X32621Y31604D02*
Y31841D01*
X32779Y31604D02*
Y31841D01*
X32936Y31604D02*
Y31841D01*
X33094Y31604D02*
Y31841D01*
X32306Y33159D02*
Y33396D01*
X32464Y33159D02*
Y33396D01*
X32621Y33159D02*
Y33396D01*
X32779Y33159D02*
Y33396D01*
X32936Y33159D02*
Y33396D01*
X33094Y33159D02*
Y33396D01*
D52*
X25427Y32377D02*
D03*
X25073Y32023D02*
D03*
D53*
X25073Y32377D02*
D03*
X25427Y32023D02*
D03*
D54*
X29127Y32600D02*
D03*
X28773D02*
D03*
Y32100D02*
D03*
X29127D02*
D03*
D55*
X29048Y32992D02*
D03*
X28852D02*
D03*
Y31708D02*
D03*
X29048D02*
D03*
D56*
X32503Y32264D02*
D03*
Y32736D02*
D03*
X32897D02*
D03*
Y32264D02*
D03*
D57*
X32164Y32067D02*
D03*
X33236D02*
D03*
D58*
X33236Y32933D02*
D03*
X32164D02*
D03*
D59*
X25545Y32781D02*
D03*
X25348D02*
D03*
X25152D02*
D03*
X24955D02*
D03*
Y31619D02*
D03*
X25152D02*
D03*
X25348D02*
D03*
X25545D02*
D03*
D60*
X24669Y32495D02*
D03*
Y32298D02*
D03*
Y32102D02*
D03*
Y31905D02*
D03*
X25831D02*
D03*
Y32102D02*
D03*
Y32298D02*
D03*
Y32495D02*
D03*
X28369Y31956D02*
D03*
Y32153D02*
D03*
Y32350D02*
D03*
Y32547D02*
D03*
Y32744D02*
D03*
X29531D02*
D03*
Y32547D02*
D03*
Y32350D02*
D03*
Y32153D02*
D03*
Y31956D02*
D03*
D61*
X32700Y32500D02*
D03*
M02*
