G04 Layer_Physical_Order=3*
G04 Layer_Color=56745*
%FSLAX24Y24*%
%MOIN*%
G70*
G01*
G75*
%ADD43C,0.0270*%
G36*
X36126Y35636D02*
X36248Y35599D01*
X36360Y35539D01*
X36458Y35458D01*
X36539Y35360D01*
X36599Y35248D01*
X36636Y35126D01*
X36648Y35004D01*
X36647Y35000D01*
Y29600D01*
X36648Y29596D01*
X36636Y29474D01*
X36599Y29352D01*
X36539Y29240D01*
X36458Y29142D01*
X36360Y29061D01*
X36248Y29001D01*
X36126Y28964D01*
X36004Y28952D01*
X36000Y28953D01*
X35083D01*
X35066Y29000D01*
X35085Y29015D01*
X35149Y29098D01*
X35190Y29196D01*
X35203Y29300D01*
X35190Y29404D01*
X35149Y29502D01*
X35085Y29585D01*
X35002Y29649D01*
X34904Y29690D01*
X34800Y29703D01*
X34696Y29690D01*
X34598Y29649D01*
X34515Y29585D01*
X34451Y29502D01*
X34410Y29404D01*
X34397Y29300D01*
X34410Y29196D01*
X34451Y29098D01*
X34515Y29015D01*
X34534Y29000D01*
X34517Y28953D01*
X34083D01*
X34066Y29000D01*
X34085Y29015D01*
X34149Y29098D01*
X34190Y29196D01*
X34203Y29300D01*
X34190Y29404D01*
X34149Y29502D01*
X34085Y29585D01*
X34002Y29649D01*
X33904Y29690D01*
X33800Y29703D01*
X33696Y29690D01*
X33598Y29649D01*
X33515Y29585D01*
X33451Y29502D01*
X33410Y29404D01*
X33397Y29300D01*
X33410Y29196D01*
X33451Y29098D01*
X33515Y29015D01*
X33534Y29000D01*
X33517Y28953D01*
X33083D01*
X33066Y29000D01*
X33085Y29015D01*
X33149Y29098D01*
X33190Y29196D01*
X33203Y29300D01*
X33190Y29404D01*
X33149Y29502D01*
X33085Y29585D01*
X33002Y29649D01*
X32904Y29690D01*
X32800Y29703D01*
X32696Y29690D01*
X32598Y29649D01*
X32515Y29585D01*
X32451Y29502D01*
X32410Y29404D01*
X32397Y29300D01*
X32410Y29196D01*
X32451Y29098D01*
X32515Y29015D01*
X32534Y29000D01*
X32517Y28953D01*
X32083D01*
X32066Y29000D01*
X32085Y29015D01*
X32149Y29098D01*
X32190Y29196D01*
X32203Y29300D01*
X32190Y29404D01*
X32149Y29502D01*
X32085Y29585D01*
X32002Y29649D01*
X31904Y29690D01*
X31800Y29703D01*
X31696Y29690D01*
X31598Y29649D01*
X31515Y29585D01*
X31451Y29502D01*
X31410Y29404D01*
X31397Y29300D01*
X31410Y29196D01*
X31451Y29098D01*
X31515Y29015D01*
X31534Y29000D01*
X31517Y28953D01*
X31083D01*
X31066Y29000D01*
X31085Y29015D01*
X31149Y29098D01*
X31190Y29196D01*
X31203Y29300D01*
X31190Y29404D01*
X31149Y29502D01*
X31085Y29585D01*
X31002Y29649D01*
X30904Y29690D01*
X30800Y29703D01*
X30696Y29690D01*
X30598Y29649D01*
X30515Y29585D01*
X30451Y29502D01*
X30410Y29404D01*
X30397Y29300D01*
X30410Y29196D01*
X30451Y29098D01*
X30515Y29015D01*
X30534Y29000D01*
X30517Y28953D01*
X30083D01*
X30066Y29000D01*
X30085Y29015D01*
X30149Y29098D01*
X30190Y29196D01*
X30203Y29300D01*
X30190Y29404D01*
X30149Y29502D01*
X30085Y29585D01*
X30002Y29649D01*
X29904Y29690D01*
X29800Y29703D01*
X29696Y29690D01*
X29598Y29649D01*
X29515Y29585D01*
X29451Y29502D01*
X29410Y29404D01*
X29397Y29300D01*
X29410Y29196D01*
X29451Y29098D01*
X29515Y29015D01*
X29534Y29000D01*
X29517Y28953D01*
X29083D01*
X29066Y29000D01*
X29085Y29015D01*
X29149Y29098D01*
X29190Y29196D01*
X29203Y29300D01*
X29190Y29404D01*
X29149Y29502D01*
X29085Y29585D01*
X29002Y29649D01*
X28904Y29690D01*
X28800Y29703D01*
X28696Y29690D01*
X28598Y29649D01*
X28515Y29585D01*
X28451Y29502D01*
X28410Y29404D01*
X28397Y29300D01*
X28410Y29196D01*
X28451Y29098D01*
X28515Y29015D01*
X28534Y29000D01*
X28517Y28953D01*
X28083D01*
X28066Y29000D01*
X28085Y29015D01*
X28149Y29098D01*
X28190Y29196D01*
X28203Y29300D01*
X28190Y29404D01*
X28149Y29502D01*
X28085Y29585D01*
X28002Y29649D01*
X27904Y29690D01*
X27800Y29703D01*
X27696Y29690D01*
X27598Y29649D01*
X27515Y29585D01*
X27451Y29502D01*
X27410Y29404D01*
X27397Y29300D01*
X27410Y29196D01*
X27451Y29098D01*
X27515Y29015D01*
X27534Y29000D01*
X27517Y28953D01*
X27083D01*
X27066Y29000D01*
X27085Y29015D01*
X27149Y29098D01*
X27190Y29196D01*
X27203Y29300D01*
X27190Y29404D01*
X27149Y29502D01*
X27085Y29585D01*
X27002Y29649D01*
X26904Y29690D01*
X26800Y29703D01*
X26696Y29690D01*
X26598Y29649D01*
X26515Y29585D01*
X26451Y29502D01*
X26410Y29404D01*
X26397Y29300D01*
X26410Y29196D01*
X26451Y29098D01*
X26515Y29015D01*
X26534Y29000D01*
X26517Y28953D01*
X26083D01*
X26066Y29000D01*
X26085Y29015D01*
X26149Y29098D01*
X26190Y29196D01*
X26203Y29300D01*
X26190Y29404D01*
X26149Y29502D01*
X26085Y29585D01*
X26002Y29649D01*
X25904Y29690D01*
X25800Y29703D01*
X25696Y29690D01*
X25598Y29649D01*
X25515Y29585D01*
X25451Y29502D01*
X25410Y29404D01*
X25397Y29300D01*
X25410Y29196D01*
X25451Y29098D01*
X25515Y29015D01*
X25534Y29000D01*
X25517Y28953D01*
X25083D01*
X25066Y29000D01*
X25085Y29015D01*
X25149Y29098D01*
X25190Y29196D01*
X25203Y29300D01*
X25190Y29404D01*
X25149Y29502D01*
X25085Y29585D01*
X25002Y29649D01*
X24904Y29690D01*
X24800Y29703D01*
X24696Y29690D01*
X24598Y29649D01*
X24515Y29585D01*
X24451Y29502D01*
X24410Y29404D01*
X24397Y29300D01*
X24410Y29196D01*
X24451Y29098D01*
X24515Y29015D01*
X24534Y29000D01*
X24517Y28953D01*
X24083D01*
X24066Y29000D01*
X24085Y29015D01*
X24149Y29098D01*
X24190Y29196D01*
X24203Y29300D01*
X24190Y29404D01*
X24149Y29502D01*
X24085Y29585D01*
X24002Y29649D01*
X23904Y29690D01*
X23800Y29703D01*
X23696Y29690D01*
X23598Y29649D01*
X23515Y29585D01*
X23451Y29502D01*
X23410Y29404D01*
X23397Y29300D01*
X23410Y29196D01*
X23451Y29098D01*
X23515Y29015D01*
X23534Y29000D01*
X23517Y28953D01*
X23083D01*
X23066Y29000D01*
X23085Y29015D01*
X23149Y29098D01*
X23190Y29196D01*
X23203Y29300D01*
X23190Y29404D01*
X23149Y29502D01*
X23085Y29585D01*
X23002Y29649D01*
X22904Y29690D01*
X22800Y29703D01*
X22696Y29690D01*
X22598Y29649D01*
X22515Y29585D01*
X22451Y29502D01*
X22410Y29404D01*
X22397Y29300D01*
X22410Y29196D01*
X22451Y29098D01*
X22515Y29015D01*
X22534Y29000D01*
X22517Y28953D01*
X22083D01*
X22066Y29000D01*
X22085Y29015D01*
X22149Y29098D01*
X22190Y29196D01*
X22203Y29300D01*
X22190Y29404D01*
X22149Y29502D01*
X22085Y29585D01*
X22002Y29649D01*
X21904Y29690D01*
X21800Y29703D01*
X21696Y29690D01*
X21598Y29649D01*
X21515Y29585D01*
X21451Y29502D01*
X21410Y29404D01*
X21397Y29300D01*
X21410Y29196D01*
X21451Y29098D01*
X21515Y29015D01*
X21534Y29000D01*
X21517Y28953D01*
X20600D01*
X20596Y28952D01*
X20474Y28964D01*
X20352Y29001D01*
X20240Y29061D01*
X20142Y29142D01*
X20061Y29240D01*
X20001Y29352D01*
X19964Y29474D01*
X19952Y29596D01*
X19953Y29600D01*
Y31850D01*
X20600D01*
Y32550D01*
X19953D01*
Y35000D01*
X19952Y35004D01*
X19964Y35126D01*
X20001Y35248D01*
X20061Y35360D01*
X20142Y35458D01*
X20240Y35539D01*
X20352Y35599D01*
X20474Y35636D01*
X20596Y35648D01*
X20600Y35647D01*
X21517D01*
X21534Y35600D01*
X21515Y35585D01*
X21451Y35502D01*
X21410Y35404D01*
X21397Y35300D01*
X21410Y35196D01*
X21451Y35098D01*
X21515Y35015D01*
X21598Y34951D01*
X21696Y34910D01*
X21800Y34897D01*
X21904Y34910D01*
X22002Y34951D01*
X22085Y35015D01*
X22149Y35098D01*
X22190Y35196D01*
X22203Y35300D01*
X22190Y35404D01*
X22149Y35502D01*
X22085Y35585D01*
X22066Y35600D01*
X22083Y35647D01*
X22517D01*
X22534Y35600D01*
X22515Y35585D01*
X22451Y35502D01*
X22410Y35404D01*
X22397Y35300D01*
X22410Y35196D01*
X22451Y35098D01*
X22515Y35015D01*
X22598Y34951D01*
X22696Y34910D01*
X22800Y34897D01*
X22904Y34910D01*
X23002Y34951D01*
X23085Y35015D01*
X23149Y35098D01*
X23190Y35196D01*
X23203Y35300D01*
X23190Y35404D01*
X23149Y35502D01*
X23085Y35585D01*
X23066Y35600D01*
X23083Y35647D01*
X23517D01*
X23534Y35600D01*
X23515Y35585D01*
X23451Y35502D01*
X23410Y35404D01*
X23397Y35300D01*
X23410Y35196D01*
X23451Y35098D01*
X23515Y35015D01*
X23598Y34951D01*
X23696Y34910D01*
X23800Y34897D01*
X23904Y34910D01*
X24002Y34951D01*
X24085Y35015D01*
X24149Y35098D01*
X24190Y35196D01*
X24203Y35300D01*
X24190Y35404D01*
X24149Y35502D01*
X24085Y35585D01*
X24066Y35600D01*
X24083Y35647D01*
X24517D01*
X24534Y35600D01*
X24515Y35585D01*
X24451Y35502D01*
X24410Y35404D01*
X24397Y35300D01*
X24410Y35196D01*
X24451Y35098D01*
X24515Y35015D01*
X24598Y34951D01*
X24696Y34910D01*
X24800Y34897D01*
X24904Y34910D01*
X25002Y34951D01*
X25085Y35015D01*
X25149Y35098D01*
X25190Y35196D01*
X25203Y35300D01*
X25190Y35404D01*
X25149Y35502D01*
X25085Y35585D01*
X25066Y35600D01*
X25083Y35647D01*
X25517D01*
X25534Y35600D01*
X25515Y35585D01*
X25451Y35502D01*
X25410Y35404D01*
X25397Y35300D01*
X25410Y35196D01*
X25451Y35098D01*
X25515Y35015D01*
X25598Y34951D01*
X25696Y34910D01*
X25800Y34897D01*
X25904Y34910D01*
X26002Y34951D01*
X26085Y35015D01*
X26149Y35098D01*
X26190Y35196D01*
X26203Y35300D01*
X26190Y35404D01*
X26149Y35502D01*
X26085Y35585D01*
X26066Y35600D01*
X26083Y35647D01*
X26517D01*
X26534Y35600D01*
X26515Y35585D01*
X26451Y35502D01*
X26410Y35404D01*
X26397Y35300D01*
X26410Y35196D01*
X26451Y35098D01*
X26515Y35015D01*
X26598Y34951D01*
X26696Y34910D01*
X26800Y34897D01*
X26904Y34910D01*
X27002Y34951D01*
X27085Y35015D01*
X27149Y35098D01*
X27190Y35196D01*
X27203Y35300D01*
X27190Y35404D01*
X27149Y35502D01*
X27085Y35585D01*
X27066Y35600D01*
X27083Y35647D01*
X27517D01*
X27534Y35600D01*
X27515Y35585D01*
X27451Y35502D01*
X27410Y35404D01*
X27397Y35300D01*
X27410Y35196D01*
X27451Y35098D01*
X27515Y35015D01*
X27598Y34951D01*
X27696Y34910D01*
X27800Y34897D01*
X27904Y34910D01*
X28002Y34951D01*
X28085Y35015D01*
X28149Y35098D01*
X28190Y35196D01*
X28203Y35300D01*
X28190Y35404D01*
X28149Y35502D01*
X28085Y35585D01*
X28066Y35600D01*
X28083Y35647D01*
X28517D01*
X28534Y35600D01*
X28515Y35585D01*
X28451Y35502D01*
X28410Y35404D01*
X28397Y35300D01*
X28410Y35196D01*
X28451Y35098D01*
X28515Y35015D01*
X28598Y34951D01*
X28696Y34910D01*
X28800Y34897D01*
X28904Y34910D01*
X29002Y34951D01*
X29085Y35015D01*
X29149Y35098D01*
X29190Y35196D01*
X29203Y35300D01*
X29190Y35404D01*
X29149Y35502D01*
X29085Y35585D01*
X29066Y35600D01*
X29083Y35647D01*
X29517D01*
X29534Y35600D01*
X29515Y35585D01*
X29451Y35502D01*
X29410Y35404D01*
X29397Y35300D01*
X29410Y35196D01*
X29451Y35098D01*
X29515Y35015D01*
X29598Y34951D01*
X29696Y34910D01*
X29800Y34897D01*
X29904Y34910D01*
X30002Y34951D01*
X30085Y35015D01*
X30149Y35098D01*
X30190Y35196D01*
X30203Y35300D01*
X30190Y35404D01*
X30149Y35502D01*
X30085Y35585D01*
X30066Y35600D01*
X30083Y35647D01*
X30517D01*
X30534Y35600D01*
X30515Y35585D01*
X30451Y35502D01*
X30410Y35404D01*
X30397Y35300D01*
X30410Y35196D01*
X30451Y35098D01*
X30515Y35015D01*
X30598Y34951D01*
X30696Y34910D01*
X30800Y34897D01*
X30904Y34910D01*
X31002Y34951D01*
X31085Y35015D01*
X31149Y35098D01*
X31190Y35196D01*
X31203Y35300D01*
X31190Y35404D01*
X31149Y35502D01*
X31085Y35585D01*
X31066Y35600D01*
X31083Y35647D01*
X31517D01*
X31534Y35600D01*
X31515Y35585D01*
X31451Y35502D01*
X31410Y35404D01*
X31397Y35300D01*
X31410Y35196D01*
X31451Y35098D01*
X31515Y35015D01*
X31598Y34951D01*
X31696Y34910D01*
X31800Y34897D01*
X31904Y34910D01*
X32002Y34951D01*
X32085Y35015D01*
X32149Y35098D01*
X32190Y35196D01*
X32203Y35300D01*
X32190Y35404D01*
X32149Y35502D01*
X32085Y35585D01*
X32066Y35600D01*
X32083Y35647D01*
X32517D01*
X32534Y35600D01*
X32515Y35585D01*
X32451Y35502D01*
X32410Y35404D01*
X32397Y35300D01*
X32410Y35196D01*
X32451Y35098D01*
X32515Y35015D01*
X32598Y34951D01*
X32696Y34910D01*
X32800Y34897D01*
X32904Y34910D01*
X33002Y34951D01*
X33085Y35015D01*
X33149Y35098D01*
X33190Y35196D01*
X33203Y35300D01*
X33190Y35404D01*
X33149Y35502D01*
X33085Y35585D01*
X33066Y35600D01*
X33083Y35647D01*
X33517D01*
X33534Y35600D01*
X33515Y35585D01*
X33451Y35502D01*
X33410Y35404D01*
X33397Y35300D01*
X33410Y35196D01*
X33451Y35098D01*
X33515Y35015D01*
X33598Y34951D01*
X33696Y34910D01*
X33800Y34897D01*
X33904Y34910D01*
X34002Y34951D01*
X34085Y35015D01*
X34149Y35098D01*
X34190Y35196D01*
X34203Y35300D01*
X34190Y35404D01*
X34149Y35502D01*
X34085Y35585D01*
X34066Y35600D01*
X34083Y35647D01*
X34517D01*
X34534Y35600D01*
X34515Y35585D01*
X34451Y35502D01*
X34410Y35404D01*
X34397Y35300D01*
X34410Y35196D01*
X34451Y35098D01*
X34515Y35015D01*
X34598Y34951D01*
X34696Y34910D01*
X34800Y34897D01*
X34904Y34910D01*
X35002Y34951D01*
X35085Y35015D01*
X35149Y35098D01*
X35190Y35196D01*
X35203Y35300D01*
X35190Y35404D01*
X35149Y35502D01*
X35085Y35585D01*
X35066Y35600D01*
X35083Y35647D01*
X36000D01*
X36004Y35648D01*
X36126Y35636D01*
D02*
G37*
%LPC*%
G36*
X21250Y32553D02*
X21159Y32541D01*
X21073Y32506D01*
X21000Y32450D01*
X20944Y32377D01*
X20909Y32291D01*
X20897Y32200D01*
X20909Y32109D01*
X20944Y32023D01*
X21000Y31950D01*
X21073Y31894D01*
X21159Y31859D01*
X21250Y31847D01*
X21341Y31859D01*
X21427Y31894D01*
X21500Y31950D01*
X21556Y32023D01*
X21591Y32109D01*
X21603Y32200D01*
X21591Y32291D01*
X21556Y32377D01*
X21500Y32450D01*
X21427Y32506D01*
X21341Y32541D01*
X21250Y32553D01*
D02*
G37*
G36*
X22250D02*
X22159Y32541D01*
X22073Y32506D01*
X22000Y32450D01*
X21944Y32377D01*
X21909Y32291D01*
X21897Y32200D01*
X21909Y32109D01*
X21944Y32023D01*
X22000Y31950D01*
X22073Y31894D01*
X22159Y31859D01*
X22250Y31847D01*
X22341Y31859D01*
X22427Y31894D01*
X22500Y31950D01*
X22556Y32023D01*
X22591Y32109D01*
X22603Y32200D01*
X22591Y32291D01*
X22556Y32377D01*
X22500Y32450D01*
X22427Y32506D01*
X22341Y32541D01*
X22250Y32553D01*
D02*
G37*
G36*
X28753Y32206D02*
X28695Y32195D01*
X28646Y32162D01*
X28613Y32113D01*
X28602Y32055D01*
X28613Y31997D01*
X28646Y31948D01*
X28695Y31915D01*
X28753Y31903D01*
X28811Y31915D01*
X28860Y31948D01*
X28893Y31997D01*
X28904Y32055D01*
X28893Y32113D01*
X28860Y32162D01*
X28811Y32195D01*
X28753Y32206D01*
D02*
G37*
G36*
X24450Y31639D02*
X24378Y31624D01*
X24317Y31583D01*
X24276Y31522D01*
X24261Y31450D01*
X24276Y31378D01*
X24317Y31317D01*
X24378Y31276D01*
X24450Y31261D01*
X24522Y31276D01*
X24583Y31317D01*
X24624Y31378D01*
X24639Y31450D01*
X24624Y31522D01*
X24583Y31583D01*
X24522Y31624D01*
X24450Y31639D01*
D02*
G37*
G36*
X26400Y31789D02*
X26328Y31774D01*
X26267Y31733D01*
X26226Y31672D01*
X26211Y31600D01*
X26226Y31528D01*
X26267Y31467D01*
X26328Y31426D01*
X26400Y31411D01*
X26472Y31426D01*
X26533Y31467D01*
X26574Y31528D01*
X26589Y31600D01*
X26574Y31672D01*
X26533Y31733D01*
X26472Y31774D01*
X26400Y31789D01*
D02*
G37*
G36*
X34865Y32223D02*
X34135D01*
Y31493D01*
X34865D01*
Y32223D01*
D02*
G37*
G36*
X32897Y32297D02*
X32839Y32285D01*
X32790Y32253D01*
X32757Y32204D01*
X32746Y32146D01*
X32757Y32088D01*
X32790Y32039D01*
X32839Y32006D01*
X32897Y31994D01*
X32955Y32006D01*
X33004Y32039D01*
X33037Y32088D01*
X33048Y32146D01*
X33037Y32204D01*
X33004Y32253D01*
X32955Y32285D01*
X32897Y32297D01*
D02*
G37*
G36*
X28950Y32501D02*
X28892Y32490D01*
X28843Y32457D01*
X28810Y32408D01*
X28799Y32350D01*
X28810Y32292D01*
X28843Y32243D01*
X28892Y32210D01*
X28950Y32199D01*
X29008Y32210D01*
X29057Y32243D01*
X29090Y32292D01*
X29101Y32350D01*
X29090Y32408D01*
X29057Y32457D01*
X29008Y32490D01*
X28950Y32501D01*
D02*
G37*
G36*
X32503Y32651D02*
X32445Y32640D01*
X32396Y32607D01*
X32363Y32558D01*
X32352Y32500D01*
X32363Y32442D01*
X32396Y32393D01*
X32445Y32360D01*
X32503Y32349D01*
X32561Y32360D01*
X32610Y32393D01*
X32643Y32442D01*
X32654Y32500D01*
X32643Y32558D01*
X32610Y32607D01*
X32561Y32640D01*
X32503Y32651D01*
D02*
G37*
G36*
X29147Y32206D02*
X29089Y32195D01*
X29040Y32162D01*
X29007Y32113D01*
X28996Y32055D01*
X29007Y31997D01*
X29040Y31948D01*
X29089Y31915D01*
X29147Y31903D01*
X29205Y31915D01*
X29254Y31948D01*
X29287Y31997D01*
X29298Y32055D01*
X29287Y32113D01*
X29254Y32162D01*
X29205Y32195D01*
X29147Y32206D01*
D02*
G37*
G36*
X26400Y32337D02*
X26328Y32323D01*
X26267Y32282D01*
X26226Y32221D01*
X26211Y32148D01*
X26226Y32076D01*
X26267Y32015D01*
X26328Y31974D01*
X26400Y31960D01*
X26472Y31974D01*
X26533Y32015D01*
X26574Y32076D01*
X26589Y32148D01*
X26574Y32221D01*
X26533Y32282D01*
X26472Y32323D01*
X26400Y32337D01*
D02*
G37*
G36*
X32503Y32297D02*
X32445Y32285D01*
X32396Y32253D01*
X32363Y32204D01*
X32352Y32146D01*
X32363Y32088D01*
X32396Y32039D01*
X32445Y32006D01*
X32503Y31994D01*
X32561Y32006D01*
X32610Y32039D01*
X32643Y32088D01*
X32654Y32146D01*
X32643Y32204D01*
X32610Y32253D01*
X32561Y32285D01*
X32503Y32297D01*
D02*
G37*
G36*
X33300Y31489D02*
X33228Y31474D01*
X33167Y31433D01*
X33126Y31372D01*
X33111Y31300D01*
X33126Y31228D01*
X33167Y31167D01*
X33228Y31126D01*
X33300Y31111D01*
X33372Y31126D01*
X33433Y31167D01*
X33474Y31228D01*
X33489Y31300D01*
X33474Y31372D01*
X33433Y31433D01*
X33372Y31474D01*
X33300Y31489D01*
D02*
G37*
G36*
X32850Y30239D02*
X32778Y30224D01*
X32717Y30183D01*
X32676Y30122D01*
X32661Y30050D01*
X32676Y29978D01*
X32717Y29917D01*
X32778Y29876D01*
X32850Y29861D01*
X32922Y29876D01*
X32983Y29917D01*
X33024Y29978D01*
X33039Y30050D01*
X33024Y30122D01*
X32983Y30183D01*
X32922Y30224D01*
X32850Y30239D01*
D02*
G37*
G36*
X25845Y30343D02*
X25773Y30329D01*
X25712Y30288D01*
X25671Y30227D01*
X25657Y30155D01*
X25671Y30083D01*
X25712Y30021D01*
X25773Y29980D01*
X25845Y29966D01*
X25917Y29980D01*
X25979Y30021D01*
X26020Y30083D01*
X26034Y30155D01*
X26020Y30227D01*
X25979Y30288D01*
X25917Y30329D01*
X25845Y30343D01*
D02*
G37*
G36*
X31700Y30539D02*
X31628Y30524D01*
X31567Y30483D01*
X31526Y30422D01*
X31511Y30350D01*
X31526Y30278D01*
X31567Y30217D01*
X31628Y30176D01*
X31700Y30161D01*
X31772Y30176D01*
X31833Y30217D01*
X31874Y30278D01*
X31889Y30350D01*
X31874Y30422D01*
X31833Y30483D01*
X31772Y30524D01*
X31700Y30539D01*
D02*
G37*
G36*
X20550Y30037D02*
X20424Y30021D01*
X20306Y29972D01*
X20205Y29895D01*
X20128Y29794D01*
X20079Y29676D01*
X20063Y29550D01*
X20079Y29424D01*
X20128Y29306D01*
X20205Y29205D01*
X20306Y29128D01*
X20424Y29079D01*
X20550Y29063D01*
X20676Y29079D01*
X20794Y29128D01*
X20895Y29205D01*
X20972Y29306D01*
X21021Y29424D01*
X21037Y29550D01*
X21021Y29676D01*
X20972Y29794D01*
X20895Y29895D01*
X20794Y29972D01*
X20676Y30021D01*
X20550Y30037D01*
D02*
G37*
G36*
X36050D02*
X35924Y30021D01*
X35806Y29972D01*
X35705Y29895D01*
X35628Y29794D01*
X35579Y29676D01*
X35563Y29550D01*
X35579Y29424D01*
X35628Y29306D01*
X35705Y29205D01*
X35806Y29128D01*
X35924Y29079D01*
X36050Y29063D01*
X36176Y29079D01*
X36294Y29128D01*
X36395Y29205D01*
X36472Y29306D01*
X36521Y29424D01*
X36537Y29550D01*
X36521Y29676D01*
X36472Y29794D01*
X36395Y29895D01*
X36294Y29972D01*
X36176Y30021D01*
X36050Y30037D01*
D02*
G37*
G36*
X29550Y30139D02*
X29478Y30124D01*
X29417Y30083D01*
X29376Y30022D01*
X29361Y29950D01*
X29376Y29878D01*
X29417Y29817D01*
X29478Y29776D01*
X29550Y29761D01*
X29622Y29776D01*
X29683Y29817D01*
X29724Y29878D01*
X29739Y29950D01*
X29724Y30022D01*
X29683Y30083D01*
X29622Y30124D01*
X29550Y30139D01*
D02*
G37*
G36*
X33800Y30839D02*
X33728Y30824D01*
X33667Y30783D01*
X33626Y30722D01*
X33611Y30650D01*
X33626Y30578D01*
X33667Y30517D01*
X33728Y30476D01*
X33800Y30461D01*
X33872Y30476D01*
X33933Y30517D01*
X33974Y30578D01*
X33989Y30650D01*
X33974Y30722D01*
X33933Y30783D01*
X33872Y30824D01*
X33800Y30839D01*
D02*
G37*
G36*
X31800Y31139D02*
X31728Y31124D01*
X31667Y31083D01*
X31626Y31022D01*
X31611Y30950D01*
X31626Y30878D01*
X31667Y30817D01*
X31728Y30776D01*
X31800Y30761D01*
X31872Y30776D01*
X31933Y30817D01*
X31974Y30878D01*
X31989Y30950D01*
X31974Y31022D01*
X31933Y31083D01*
X31872Y31124D01*
X31800Y31139D01*
D02*
G37*
G36*
X27300Y31289D02*
X27228Y31274D01*
X27167Y31233D01*
X27126Y31172D01*
X27111Y31100D01*
X27126Y31028D01*
X27167Y30967D01*
X27228Y30926D01*
X27300Y30911D01*
X27372Y30926D01*
X27433Y30967D01*
X27474Y31028D01*
X27489Y31100D01*
X27474Y31172D01*
X27433Y31233D01*
X27372Y31274D01*
X27300Y31289D01*
D02*
G37*
G36*
X34750Y30539D02*
X34678Y30524D01*
X34617Y30483D01*
X34576Y30422D01*
X34561Y30350D01*
X34576Y30278D01*
X34617Y30217D01*
X34678Y30176D01*
X34750Y30161D01*
X34822Y30176D01*
X34883Y30217D01*
X34924Y30278D01*
X34939Y30350D01*
X34924Y30422D01*
X34883Y30483D01*
X34822Y30524D01*
X34750Y30539D01*
D02*
G37*
G36*
X20450Y31303D02*
X20359Y31291D01*
X20273Y31256D01*
X20200Y31200D01*
X20144Y31127D01*
X20109Y31041D01*
X20097Y30950D01*
Y30750D01*
X20109Y30659D01*
X20144Y30573D01*
X20200Y30500D01*
X20273Y30444D01*
X20359Y30409D01*
X20450Y30397D01*
X20541Y30409D01*
X20627Y30444D01*
X20700Y30500D01*
X20756Y30573D01*
X20791Y30659D01*
X20803Y30750D01*
Y30950D01*
X20791Y31041D01*
X20756Y31127D01*
X20700Y31200D01*
X20627Y31256D01*
X20541Y31291D01*
X20450Y31303D01*
D02*
G37*
G36*
X21450D02*
X21359Y31291D01*
X21273Y31256D01*
X21200Y31200D01*
X21144Y31127D01*
X21109Y31041D01*
X21097Y30950D01*
Y30750D01*
X21109Y30659D01*
X21144Y30573D01*
X21200Y30500D01*
X21273Y30444D01*
X21359Y30409D01*
X21450Y30397D01*
X21541Y30409D01*
X21627Y30444D01*
X21700Y30500D01*
X21756Y30573D01*
X21791Y30659D01*
X21803Y30750D01*
Y30950D01*
X21791Y31041D01*
X21756Y31127D01*
X21700Y31200D01*
X21627Y31256D01*
X21541Y31291D01*
X21450Y31303D01*
D02*
G37*
G36*
X32897Y32651D02*
X32839Y32640D01*
X32790Y32607D01*
X32757Y32558D01*
X32746Y32500D01*
X32757Y32442D01*
X32790Y32393D01*
X32839Y32360D01*
X32897Y32349D01*
X32955Y32360D01*
X33004Y32393D01*
X33037Y32442D01*
X33048Y32500D01*
X33037Y32558D01*
X33004Y32607D01*
X32955Y32640D01*
X32897Y32651D01*
D02*
G37*
G36*
X32621Y34039D02*
X32549Y34024D01*
X32488Y33983D01*
X32447Y33922D01*
X32433Y33850D01*
X32445Y33785D01*
X32428Y33766D01*
X32405Y33752D01*
X32372Y33774D01*
X32300Y33789D01*
X32228Y33774D01*
X32167Y33733D01*
X32126Y33672D01*
X32111Y33600D01*
X32126Y33528D01*
X32167Y33467D01*
X32228Y33426D01*
X32300Y33411D01*
X32372Y33426D01*
X32433Y33467D01*
X32474Y33528D01*
X32489Y33600D01*
X32476Y33665D01*
X32493Y33684D01*
X32516Y33698D01*
X32549Y33676D01*
X32621Y33661D01*
X32693Y33676D01*
X32755Y33717D01*
X32796Y33778D01*
X32810Y33850D01*
X32796Y33922D01*
X32755Y33983D01*
X32693Y34024D01*
X32621Y34039D01*
D02*
G37*
G36*
X33750Y34339D02*
X33678Y34324D01*
X33617Y34283D01*
X33576Y34222D01*
X33561Y34150D01*
X33576Y34078D01*
X33617Y34017D01*
X33678Y33976D01*
X33750Y33961D01*
X33822Y33976D01*
X33883Y34017D01*
X33924Y34078D01*
X33939Y34150D01*
X33924Y34222D01*
X33883Y34283D01*
X33822Y34324D01*
X33750Y34339D01*
D02*
G37*
G36*
X23050Y34539D02*
X22978Y34524D01*
X22917Y34483D01*
X22876Y34422D01*
X22861Y34350D01*
X22876Y34278D01*
X22917Y34217D01*
X22978Y34176D01*
X23050Y34161D01*
X23122Y34176D01*
X23183Y34217D01*
X23224Y34278D01*
X23239Y34350D01*
X23224Y34422D01*
X23183Y34483D01*
X23122Y34524D01*
X23050Y34539D01*
D02*
G37*
G36*
X27700Y33539D02*
X27628Y33524D01*
X27567Y33483D01*
X27526Y33422D01*
X27512Y33355D01*
X27497Y33347D01*
X27462Y33340D01*
X27433Y33383D01*
X27372Y33424D01*
X27300Y33439D01*
X27228Y33424D01*
X27167Y33383D01*
X27126Y33322D01*
X27111Y33250D01*
X27126Y33178D01*
X27167Y33117D01*
X27228Y33076D01*
X27300Y33061D01*
X27372Y33076D01*
X27433Y33117D01*
X27474Y33178D01*
X27488Y33245D01*
X27503Y33253D01*
X27538Y33260D01*
X27567Y33217D01*
X27628Y33176D01*
X27700Y33161D01*
X27772Y33176D01*
X27833Y33217D01*
X27874Y33278D01*
X27889Y33350D01*
X27874Y33422D01*
X27833Y33483D01*
X27772Y33524D01*
X27700Y33539D01*
D02*
G37*
G36*
X23750Y33989D02*
X23678Y33974D01*
X23617Y33933D01*
X23576Y33872D01*
X23561Y33800D01*
X23576Y33728D01*
X23617Y33667D01*
X23678Y33626D01*
X23750Y33611D01*
X23822Y33626D01*
X23883Y33667D01*
X23924Y33728D01*
X23939Y33800D01*
X23924Y33872D01*
X23883Y33933D01*
X23822Y33974D01*
X23750Y33989D01*
D02*
G37*
G36*
X33250Y34039D02*
X33178Y34024D01*
X33117Y33983D01*
X33076Y33922D01*
X33061Y33850D01*
X33076Y33778D01*
X33117Y33717D01*
X33178Y33676D01*
X33250Y33661D01*
X33322Y33676D01*
X33383Y33717D01*
X33424Y33778D01*
X33439Y33850D01*
X33424Y33922D01*
X33383Y33983D01*
X33322Y34024D01*
X33250Y34039D01*
D02*
G37*
G36*
X27850Y34839D02*
X27778Y34824D01*
X27717Y34783D01*
X27676Y34722D01*
X27661Y34650D01*
X27676Y34578D01*
X27717Y34517D01*
X27778Y34476D01*
X27850Y34461D01*
X27922Y34476D01*
X27983Y34517D01*
X28024Y34578D01*
X28039Y34650D01*
X28024Y34722D01*
X27983Y34783D01*
X27922Y34824D01*
X27850Y34839D01*
D02*
G37*
G36*
X20550Y35537D02*
X20424Y35521D01*
X20306Y35472D01*
X20205Y35395D01*
X20128Y35294D01*
X20079Y35176D01*
X20063Y35050D01*
X20079Y34924D01*
X20128Y34806D01*
X20205Y34705D01*
X20306Y34628D01*
X20424Y34579D01*
X20550Y34563D01*
X20676Y34579D01*
X20794Y34628D01*
X20895Y34705D01*
X20972Y34806D01*
X21021Y34924D01*
X21037Y35050D01*
X21021Y35176D01*
X20972Y35294D01*
X20895Y35395D01*
X20794Y35472D01*
X20676Y35521D01*
X20550Y35537D01*
D02*
G37*
G36*
X36050D02*
X35924Y35521D01*
X35806Y35472D01*
X35705Y35395D01*
X35628Y35294D01*
X35579Y35176D01*
X35563Y35050D01*
X35579Y34924D01*
X35628Y34806D01*
X35705Y34705D01*
X35806Y34628D01*
X35924Y34579D01*
X36050Y34563D01*
X36176Y34579D01*
X36294Y34628D01*
X36395Y34705D01*
X36472Y34806D01*
X36521Y34924D01*
X36537Y35050D01*
X36521Y35176D01*
X36472Y35294D01*
X36395Y35395D01*
X36294Y35472D01*
X36176Y35521D01*
X36050Y35537D01*
D02*
G37*
G36*
X25350Y34589D02*
X25278Y34574D01*
X25217Y34533D01*
X25176Y34472D01*
X25161Y34400D01*
X25176Y34328D01*
X25217Y34267D01*
X25278Y34226D01*
X25350Y34211D01*
X25422Y34226D01*
X25483Y34267D01*
X25524Y34328D01*
X25539Y34400D01*
X25524Y34472D01*
X25483Y34533D01*
X25422Y34574D01*
X25350Y34589D01*
D02*
G37*
G36*
X30800D02*
X30728Y34574D01*
X30667Y34533D01*
X30626Y34472D01*
X30611Y34400D01*
X30626Y34328D01*
X30667Y34267D01*
X30728Y34226D01*
X30800Y34211D01*
X30872Y34226D01*
X30933Y34267D01*
X30974Y34328D01*
X30989Y34400D01*
X30974Y34472D01*
X30933Y34533D01*
X30872Y34574D01*
X30800Y34589D01*
D02*
G37*
G36*
X31700Y34839D02*
X31628Y34824D01*
X31567Y34783D01*
X31526Y34722D01*
X31511Y34650D01*
X31526Y34578D01*
X31567Y34517D01*
X31628Y34476D01*
X31700Y34461D01*
X31772Y34476D01*
X31822Y34509D01*
X31864Y34489D01*
X31868Y34484D01*
X31861Y34450D01*
X31876Y34378D01*
X31917Y34317D01*
X31978Y34276D01*
X32050Y34261D01*
X32122Y34276D01*
X32183Y34317D01*
X32224Y34378D01*
X32239Y34450D01*
X32224Y34522D01*
X32183Y34583D01*
X32122Y34624D01*
X32050Y34639D01*
X31978Y34624D01*
X31928Y34591D01*
X31886Y34611D01*
X31882Y34616D01*
X31889Y34650D01*
X31874Y34722D01*
X31833Y34783D01*
X31772Y34824D01*
X31700Y34839D01*
D02*
G37*
G36*
X25350Y33639D02*
X25278Y33624D01*
X25217Y33583D01*
X25176Y33522D01*
X25161Y33450D01*
X25176Y33378D01*
X25217Y33317D01*
X25278Y33276D01*
X25350Y33261D01*
X25422Y33276D01*
X25483Y33317D01*
X25524Y33378D01*
X25539Y33450D01*
X25524Y33522D01*
X25483Y33583D01*
X25422Y33624D01*
X25350Y33639D01*
D02*
G37*
G36*
X29147Y32797D02*
X29089Y32785D01*
X29040Y32752D01*
X29007Y32703D01*
X28996Y32645D01*
X29007Y32587D01*
X29040Y32538D01*
X29089Y32505D01*
X29147Y32494D01*
X29205Y32505D01*
X29254Y32538D01*
X29287Y32587D01*
X29298Y32645D01*
X29287Y32703D01*
X29254Y32752D01*
X29205Y32785D01*
X29147Y32797D01*
D02*
G37*
G36*
X32503Y33006D02*
X32445Y32994D01*
X32396Y32961D01*
X32363Y32912D01*
X32352Y32854D01*
X32363Y32796D01*
X32396Y32747D01*
X32445Y32715D01*
X32503Y32703D01*
X32561Y32715D01*
X32610Y32747D01*
X32643Y32796D01*
X32654Y32854D01*
X32643Y32912D01*
X32610Y32961D01*
X32561Y32994D01*
X32503Y33006D01*
D02*
G37*
G36*
X32897D02*
X32839Y32994D01*
X32790Y32961D01*
X32757Y32912D01*
X32746Y32854D01*
X32757Y32796D01*
X32790Y32747D01*
X32839Y32715D01*
X32897Y32703D01*
X32955Y32715D01*
X33004Y32747D01*
X33037Y32796D01*
X33048Y32854D01*
X33037Y32912D01*
X33004Y32961D01*
X32955Y32994D01*
X32897Y33006D01*
D02*
G37*
G36*
X25447Y32548D02*
X25389Y32537D01*
X25340Y32504D01*
X25307Y32455D01*
X25296Y32397D01*
X25298Y32384D01*
X25263Y32349D01*
X25250Y32351D01*
X25237Y32349D01*
X25202Y32384D01*
X25204Y32397D01*
X25193Y32455D01*
X25160Y32504D01*
X25111Y32537D01*
X25053Y32548D01*
X24995Y32537D01*
X24946Y32504D01*
X24913Y32455D01*
X24902Y32397D01*
X24913Y32339D01*
X24946Y32290D01*
X24995Y32257D01*
X25053Y32246D01*
X25066Y32248D01*
X25101Y32213D01*
X25099Y32200D01*
X25101Y32187D01*
X25066Y32152D01*
X25053Y32154D01*
X24995Y32143D01*
X24946Y32110D01*
X24913Y32061D01*
X24902Y32003D01*
X24913Y31945D01*
X24946Y31896D01*
X24995Y31863D01*
X25053Y31852D01*
X25111Y31863D01*
X25160Y31896D01*
X25193Y31945D01*
X25204Y32003D01*
X25246Y32034D01*
X25254D01*
X25296Y32003D01*
X25307Y31945D01*
X25340Y31896D01*
X25389Y31863D01*
X25447Y31852D01*
X25505Y31863D01*
X25554Y31896D01*
X25587Y31945D01*
X25598Y32003D01*
X25587Y32061D01*
X25554Y32110D01*
X25505Y32143D01*
X25447Y32154D01*
X25434Y32152D01*
X25399Y32187D01*
X25401Y32200D01*
X25399Y32213D01*
X25434Y32248D01*
X25447Y32246D01*
X25505Y32257D01*
X25554Y32290D01*
X25587Y32339D01*
X25598Y32397D01*
X25587Y32455D01*
X25554Y32504D01*
X25505Y32537D01*
X25447Y32548D01*
D02*
G37*
G36*
X34500Y33210D02*
X34405Y33198D01*
X34316Y33161D01*
X34240Y33102D01*
X34181Y33026D01*
X34144Y32937D01*
X34132Y32842D01*
X34144Y32747D01*
X34181Y32658D01*
X34240Y32582D01*
X34316Y32523D01*
X34405Y32487D01*
X34500Y32474D01*
X34595Y32487D01*
X34684Y32523D01*
X34760Y32582D01*
X34819Y32658D01*
X34856Y32747D01*
X34868Y32842D01*
X34856Y32937D01*
X34819Y33026D01*
X34760Y33102D01*
X34684Y33161D01*
X34595Y33198D01*
X34500Y33210D01*
D02*
G37*
G36*
X28753Y32797D02*
X28695Y32785D01*
X28646Y32752D01*
X28613Y32703D01*
X28602Y32645D01*
X28613Y32587D01*
X28646Y32538D01*
X28695Y32505D01*
X28753Y32494D01*
X28811Y32505D01*
X28860Y32538D01*
X28893Y32587D01*
X28904Y32645D01*
X28893Y32703D01*
X28860Y32752D01*
X28811Y32785D01*
X28753Y32797D01*
D02*
G37*
G36*
X20450Y34003D02*
X20359Y33991D01*
X20273Y33956D01*
X20200Y33900D01*
X20144Y33827D01*
X20109Y33741D01*
X20097Y33650D01*
Y33450D01*
X20109Y33359D01*
X20144Y33273D01*
X20200Y33200D01*
X20273Y33144D01*
X20359Y33109D01*
X20450Y33097D01*
X20541Y33109D01*
X20627Y33144D01*
X20700Y33200D01*
X20756Y33273D01*
X20791Y33359D01*
X20803Y33450D01*
Y33650D01*
X20791Y33741D01*
X20756Y33827D01*
X20700Y33900D01*
X20627Y33956D01*
X20541Y33991D01*
X20450Y34003D01*
D02*
G37*
G36*
X21450D02*
X21359Y33991D01*
X21273Y33956D01*
X21200Y33900D01*
X21144Y33827D01*
X21109Y33741D01*
X21097Y33650D01*
Y33450D01*
X21109Y33359D01*
X21144Y33273D01*
X21200Y33200D01*
X21273Y33144D01*
X21359Y33109D01*
X21450Y33097D01*
X21541Y33109D01*
X21627Y33144D01*
X21700Y33200D01*
X21756Y33273D01*
X21791Y33359D01*
X21803Y33450D01*
Y33650D01*
X21791Y33741D01*
X21756Y33827D01*
X21700Y33900D01*
X21627Y33956D01*
X21541Y33991D01*
X21450Y34003D01*
D02*
G37*
G36*
X29950Y33539D02*
X29878Y33524D01*
X29817Y33483D01*
X29776Y33422D01*
X29761Y33350D01*
X29776Y33278D01*
X29817Y33217D01*
X29878Y33176D01*
X29950Y33161D01*
X30022Y33176D01*
X30083Y33217D01*
X30124Y33278D01*
X30139Y33350D01*
X30124Y33422D01*
X30083Y33483D01*
X30022Y33524D01*
X29950Y33539D01*
D02*
G37*
G36*
X22400Y33089D02*
X22328Y33074D01*
X22267Y33033D01*
X22226Y32972D01*
X22211Y32900D01*
X22226Y32828D01*
X22267Y32767D01*
X22328Y32726D01*
X22400Y32711D01*
X22472Y32726D01*
X22533Y32767D01*
X22574Y32828D01*
X22589Y32900D01*
X22574Y32972D01*
X22533Y33033D01*
X22472Y33074D01*
X22400Y33089D01*
D02*
G37*
G36*
X25700Y33389D02*
X25628Y33374D01*
X25567Y33333D01*
X25526Y33272D01*
X25511Y33200D01*
X25526Y33128D01*
X25567Y33067D01*
X25628Y33026D01*
X25700Y33011D01*
X25772Y33026D01*
X25833Y33067D01*
X25874Y33128D01*
X25889Y33200D01*
X25874Y33272D01*
X25833Y33333D01*
X25772Y33374D01*
X25700Y33389D01*
D02*
G37*
G36*
X24450Y33439D02*
X24378Y33424D01*
X24317Y33383D01*
X24276Y33322D01*
X24261Y33250D01*
X24276Y33178D01*
X24317Y33117D01*
X24378Y33076D01*
X24450Y33061D01*
X24522Y33076D01*
X24583Y33117D01*
X24624Y33178D01*
X24639Y33250D01*
X24624Y33322D01*
X24583Y33383D01*
X24522Y33424D01*
X24450Y33439D01*
D02*
G37*
%LPD*%
D43*
X27900Y33850D02*
D03*
X22300Y33400D02*
D03*
X30000Y33000D02*
D03*
X24150Y31200D02*
D03*
X27950Y32547D02*
D03*
X25250Y30100D02*
D03*
M02*
