G04 Layer_Color=13813960*
%FSLAX24Y24*%
%MOIN*%
G70*
G01*
G75*
%ADD50C,0.0079*%
%ADD51C,0.0050*%
D50*
X23712Y32265D02*
X23988D01*
X23712Y32935D02*
X23988D01*
X33165Y32362D02*
Y32638D01*
X33835Y32362D02*
Y32638D01*
D51*
X33583Y34567D02*
X33550Y34600D01*
Y34667D01*
X33583Y34700D01*
X33717D01*
X33750Y34667D01*
Y34600D01*
X33717Y34567D01*
X33550Y34367D02*
Y34500D01*
X33650D01*
X33617Y34433D01*
Y34400D01*
X33650Y34367D01*
X33717D01*
X33750Y34400D01*
Y34467D01*
X33717Y34500D01*
X22850Y32500D02*
Y32700D01*
X22750D01*
X22717Y32667D01*
Y32600D01*
X22750Y32567D01*
X22850D01*
X22783D02*
X22717Y32500D01*
X22650D02*
X22583D01*
X22617D01*
Y32700D01*
X22650Y32667D01*
X25567Y31067D02*
X25600Y31100D01*
X25667D01*
X25700Y31067D01*
Y30933D01*
X25667Y30900D01*
X25600D01*
X25567Y30933D01*
X25500Y30900D02*
X25433D01*
X25467D01*
Y31100D01*
X25500Y31067D01*
X23450Y33650D02*
Y33850D01*
X23350D01*
X23317Y33817D01*
Y33750D01*
X23350Y33717D01*
X23450D01*
X23383D02*
X23317Y33650D01*
X23150D02*
Y33850D01*
X23250Y33750D01*
X23117D01*
X32900Y31550D02*
Y31750D01*
X32800D01*
X32767Y31717D01*
Y31650D01*
X32800Y31617D01*
X32900D01*
X32833D02*
X32767Y31550D01*
X32700D02*
X32633D01*
X32667D01*
Y31750D01*
X32700Y31717D01*
X32533D02*
X32500Y31750D01*
X32433D01*
X32400Y31717D01*
Y31683D01*
X32433Y31650D01*
X32400Y31617D01*
Y31583D01*
X32433Y31550D01*
X32500D01*
X32533Y31583D01*
Y31617D01*
X32500Y31650D01*
X32533Y31683D01*
Y31717D01*
X32500Y31650D02*
X32433D01*
X29550Y30850D02*
Y31050D01*
X29450D01*
X29417Y31017D01*
Y30950D01*
X29450Y30917D01*
X29550D01*
X29483D02*
X29417Y30850D01*
X29217D02*
X29350D01*
X29217Y30983D01*
Y31017D01*
X29250Y31050D01*
X29317D01*
X29350Y31017D01*
X29017Y30850D02*
X29150D01*
X29017Y30983D01*
Y31017D01*
X29050Y31050D01*
X29117D01*
X29150Y31017D01*
X29550Y30250D02*
Y30450D01*
X29450D01*
X29417Y30417D01*
Y30350D01*
X29450Y30317D01*
X29550D01*
X29483D02*
X29417Y30250D01*
X29217D02*
X29350D01*
X29217Y30383D01*
Y30417D01*
X29250Y30450D01*
X29317D01*
X29350Y30417D01*
X29150D02*
X29117Y30450D01*
X29050D01*
X29017Y30417D01*
Y30383D01*
X29050Y30350D01*
X29083D01*
X29050D01*
X29017Y30317D01*
Y30283D01*
X29050Y30250D01*
X29117D01*
X29150Y30283D01*
X29300Y31400D02*
Y31600D01*
X29200D01*
X29167Y31567D01*
Y31500D01*
X29200Y31467D01*
X29300D01*
X29233D02*
X29167Y31400D01*
X28967D02*
X29100D01*
X28967Y31533D01*
Y31567D01*
X29000Y31600D01*
X29067D01*
X29100Y31567D01*
X28800Y31400D02*
Y31600D01*
X28900Y31500D01*
X28767D01*
M02*
