G04 Layer_Color=20142*
%FSLAX24Y24*%
%MOIN*%
G70*
G01*
G75*
%ADD62R,0.0434X0.0453*%
%ADD63R,0.0335X0.0375*%
%ADD64R,0.0453X0.0434*%
%ADD65C,0.0540*%
%ADD66R,0.0710X0.0490*%
%ADD67R,0.0355X0.0355*%
%ADD68O,0.0149X0.0373*%
%ADD69O,0.0373X0.0149*%
%ADD70O,0.0148X0.0373*%
%ADD71R,0.0707X0.0707*%
%ADD72R,0.0375X0.0335*%
%ADD73R,0.0631X0.0394*%
%ADD74R,0.0572X0.0650*%
%ADD75C,0.0787*%
%ADD76R,0.0316X0.0375*%
%ADD77R,0.0375X0.0316*%
%ADD78R,0.0414X0.0375*%
%ADD79R,0.0150X0.0316*%
%ADD80O,0.0381X0.0156*%
%ADD81R,0.0696X0.0991*%
%ADD82R,0.0453X0.0414*%
%ADD83R,0.0414X0.0453*%
%ADD84R,0.1221X0.0276*%
%ADD85O,0.0114X0.0370*%
%ADD86R,0.0807X0.1004*%
%ADD87O,0.0640X0.0840*%
%ADD88R,0.0640X0.0640*%
%ADD89C,0.0640*%
%ADD90R,0.0670X0.0670*%
%ADD91C,0.0670*%
%ADD92C,0.0740*%
%ADD93C,0.0906*%
%ADD94C,0.0310*%
%ADD95C,0.0237*%
G36*
X30578Y32503D02*
X30853Y32228D01*
X31247Y32228D01*
X31522Y32503D01*
X31877Y32503D01*
X31877Y32070D01*
X31621Y31814D01*
X30479Y31814D01*
X30223Y32070D01*
X30223Y32503D01*
X30578Y32503D01*
D02*
G37*
G36*
X31621Y33586D02*
X31877Y33330D01*
X31877Y32897D01*
X31522Y32897D01*
X31247Y33172D01*
X30853Y33172D01*
X30578Y32897D01*
X30223Y32897D01*
X30223Y33330D01*
X30479Y33586D01*
X31621Y33586D01*
D02*
G37*
G36*
X33353Y33002D02*
X33357Y33001D01*
X33361Y32999D01*
X33364Y32996D01*
X33366Y32993D01*
X33368Y32990D01*
X33369Y32986D01*
X33369Y32982D01*
Y32884D01*
X33369Y32880D01*
X33368Y32876D01*
X33366Y32873D01*
X33364Y32870D01*
X33361Y32867D01*
X33357Y32866D01*
X33353Y32864D01*
X33350Y32864D01*
X33104D01*
Y32136D01*
X33350D01*
X33353Y32136D01*
X33357Y32134D01*
X33361Y32133D01*
X33364Y32130D01*
X33366Y32127D01*
X33368Y32124D01*
X33369Y32120D01*
X33369Y32116D01*
X33369Y32018D01*
X33369Y32014D01*
X33368Y32010D01*
X33366Y32007D01*
X33364Y32004D01*
X33361Y32001D01*
X33357Y31999D01*
X33353Y31998D01*
X33350Y31998D01*
X32050D01*
X32047Y31998D01*
X32043Y31999D01*
X32039Y32001D01*
X32036Y32004D01*
X32034Y32007D01*
X32032Y32010D01*
X32031Y32014D01*
X32031Y32018D01*
Y32116D01*
X32031Y32120D01*
X32032Y32124D01*
X32034Y32127D01*
X32036Y32130D01*
X32039Y32133D01*
X32043Y32134D01*
X32047Y32136D01*
X32050Y32136D01*
X32296D01*
Y32864D01*
X32050D01*
X32047Y32864D01*
X32043Y32866D01*
X32039Y32867D01*
X32036Y32870D01*
X32034Y32873D01*
X32032Y32876D01*
X32031Y32880D01*
X32031Y32884D01*
Y32982D01*
X32031Y32986D01*
X32032Y32990D01*
X32034Y32993D01*
X32036Y32996D01*
X32039Y32999D01*
X32043Y33001D01*
X32047Y33002D01*
X32050Y33002D01*
X33350D01*
X33353Y33002D01*
D02*
G37*
D62*
X32850Y30505D02*
D03*
Y31095D02*
D03*
X28900Y34045D02*
D03*
X29400Y30705D02*
D03*
Y31295D02*
D03*
X27900Y30705D02*
D03*
Y31295D02*
D03*
D03*
Y30705D02*
D03*
X29500Y33455D02*
D03*
Y34045D02*
D03*
D03*
Y33455D02*
D03*
D63*
X24214Y33700D02*
D03*
X24686D02*
D03*
D64*
X26745Y33250D02*
D03*
X26155Y33250D02*
D03*
D03*
X26745Y33250D02*
D03*
X25845Y30650D02*
D03*
X25255D02*
D03*
D03*
X25845D02*
D03*
X28900Y33455D02*
D03*
D65*
X31100Y30150D02*
D03*
Y31350D02*
D03*
D66*
X30350Y30130D02*
D03*
Y31370D02*
D03*
D67*
X24150Y30795D02*
D03*
Y30205D02*
D03*
X23700Y30805D02*
D03*
Y31395D02*
D03*
D68*
X25545Y32781D02*
D03*
X25348D02*
D03*
X25152D02*
D03*
X24955D02*
D03*
X25152Y31619D02*
D03*
X25348D02*
D03*
X25545D02*
D03*
D69*
X24669Y32495D02*
D03*
Y32298D02*
D03*
Y32102D02*
D03*
Y31905D02*
D03*
X25831D02*
D03*
Y32102D02*
D03*
Y32298D02*
D03*
Y32495D02*
D03*
D70*
X24955Y31619D02*
D03*
D71*
X25250Y32200D02*
D03*
D72*
X28350Y34086D02*
D03*
Y33614D02*
D03*
D73*
X27110Y34395D02*
D03*
Y33805D02*
D03*
X25890Y34395D02*
D03*
Y33805D02*
D03*
D74*
X23616Y34350D02*
D03*
X24384D02*
D03*
D75*
X27200Y30350D02*
D03*
D76*
X26658Y32700D02*
D03*
X27150D02*
D03*
X23704Y31850D02*
D03*
X24196D02*
D03*
X26204Y31100D02*
D03*
X26696D02*
D03*
D77*
X24650Y30204D02*
D03*
Y30696D02*
D03*
D78*
X23000Y31656D02*
D03*
Y31144D02*
D03*
X22850Y33144D02*
D03*
Y33656D02*
D03*
D79*
X28850Y32960D02*
D03*
X29050D02*
D03*
X28850Y31740D02*
D03*
X29050D02*
D03*
D80*
X28369Y31956D02*
D03*
Y32153D02*
D03*
Y32350D02*
D03*
Y32547D02*
D03*
Y32744D02*
D03*
X29531D02*
D03*
Y32547D02*
D03*
Y32350D02*
D03*
Y32153D02*
D03*
Y31956D02*
D03*
D81*
X28950Y32350D02*
D03*
D82*
X28700Y31285D02*
D03*
Y30715D02*
D03*
D83*
X27885Y31950D02*
D03*
X27315D02*
D03*
D84*
X31050Y32031D02*
D03*
X31050Y33369D02*
D03*
D85*
X32306Y31722D02*
D03*
X32464D02*
D03*
X32621D02*
D03*
X32779D02*
D03*
X32936D02*
D03*
X33094D02*
D03*
Y33278D02*
D03*
X32936D02*
D03*
X32779D02*
D03*
X32621D02*
D03*
X32464D02*
D03*
X32306D02*
D03*
D86*
X32700Y32500D02*
D03*
D87*
X21450Y30850D02*
D03*
X20450D02*
D03*
Y33550D02*
D03*
X21450D02*
D03*
D88*
X20250Y32200D02*
D03*
D89*
X21250D02*
D03*
X22250D02*
D03*
D90*
X34500Y31858D02*
D03*
D91*
Y32842D02*
D03*
D92*
X34800Y29300D02*
D03*
X33800D02*
D03*
X32800D02*
D03*
X31800D02*
D03*
X30800D02*
D03*
X29800D02*
D03*
X21800Y35300D02*
D03*
X22800D02*
D03*
X23800D02*
D03*
X24800D02*
D03*
X25800D02*
D03*
X26800D02*
D03*
X21800Y29300D02*
D03*
X22800D02*
D03*
X23800D02*
D03*
X24800D02*
D03*
X25800D02*
D03*
X26800D02*
D03*
X27800D02*
D03*
X28800D02*
D03*
X27800Y35300D02*
D03*
X28800D02*
D03*
X29800D02*
D03*
X30800D02*
D03*
X31800D02*
D03*
X32800D02*
D03*
X33800D02*
D03*
X34800D02*
D03*
D93*
X20550Y29550D02*
D03*
Y35050D02*
D03*
X36050D02*
D03*
Y29550D02*
D03*
D94*
X32850Y30050D02*
D03*
X25700Y33200D02*
D03*
X23050Y34350D02*
D03*
X27300Y33250D02*
D03*
X24450Y31450D02*
D03*
X23750Y33800D02*
D03*
X29550Y29950D02*
D03*
X31700Y30350D02*
D03*
X34750D02*
D03*
X31800Y30950D02*
D03*
X27900Y33850D02*
D03*
X30800Y34400D02*
D03*
X25350D02*
D03*
X26400Y32148D02*
D03*
X32050Y34450D02*
D03*
X33750Y34150D02*
D03*
X22300Y33400D02*
D03*
X22400Y32900D02*
D03*
X25350Y33450D02*
D03*
X27700Y33350D02*
D03*
X24450Y33250D02*
D03*
X30000Y33000D02*
D03*
X24150Y31200D02*
D03*
X33300Y31300D02*
D03*
X33800Y30650D02*
D03*
X26400Y31600D02*
D03*
X29950Y33350D02*
D03*
X27850Y34650D02*
D03*
X25845Y30155D02*
D03*
X27300Y31100D02*
D03*
X31700Y34650D02*
D03*
X27950Y32547D02*
D03*
X32621Y33850D02*
D03*
X33250D02*
D03*
X25250Y30100D02*
D03*
X32300Y33600D02*
D03*
D95*
X28753Y32645D02*
D03*
X28950Y32350D02*
D03*
X28753Y32055D02*
D03*
X29147D02*
D03*
Y32645D02*
D03*
X32897Y32854D02*
D03*
X32503D02*
D03*
Y32146D02*
D03*
Y32500D02*
D03*
X32897Y32146D02*
D03*
Y32500D02*
D03*
M02*
