G04 Layer_Color=8150272*
%FSLAX24Y24*%
%MOIN*%
G70*
G01*
G75*
%ADD64R,0.0453X0.0434*%
%ADD66R,0.0710X0.0490*%
%ADD83R,0.0414X0.0453*%
%ADD87O,0.0640X0.0840*%
%ADD88R,0.0640X0.0640*%
%ADD89C,0.0640*%
%ADD90R,0.0670X0.0670*%
%ADD91C,0.0670*%
%ADD92C,0.0740*%
%ADD93C,0.0906*%
%ADD94C,0.0310*%
%ADD95C,0.0237*%
%ADD96R,0.0490X0.0710*%
%ADD97R,0.0532X0.0473*%
%ADD98R,0.0375X0.0414*%
D64*
X32555Y34450D02*
D03*
X33145D02*
D03*
X25545Y31450D02*
D03*
X24955D02*
D03*
D66*
X33500Y33120D02*
D03*
Y31880D02*
D03*
D83*
X23224Y33300D02*
D03*
X23776D02*
D03*
D87*
X21450Y30850D02*
D03*
X20450D02*
D03*
Y33550D02*
D03*
X21450D02*
D03*
D88*
X20250Y32200D02*
D03*
D89*
X21250D02*
D03*
X22250D02*
D03*
D90*
X34500Y31858D02*
D03*
D91*
Y32842D02*
D03*
D92*
X34800Y29300D02*
D03*
X33800D02*
D03*
X32800D02*
D03*
X31800D02*
D03*
X30800D02*
D03*
X29800D02*
D03*
X21800Y35300D02*
D03*
X22800D02*
D03*
X23800D02*
D03*
X24800D02*
D03*
X25800D02*
D03*
X26800D02*
D03*
X21800Y29300D02*
D03*
X22800D02*
D03*
X23800D02*
D03*
X24800D02*
D03*
X25800D02*
D03*
X26800D02*
D03*
X27800D02*
D03*
X28800D02*
D03*
X27800Y35300D02*
D03*
X28800D02*
D03*
X29800D02*
D03*
X30800D02*
D03*
X31800D02*
D03*
X32800D02*
D03*
X33800D02*
D03*
X34800D02*
D03*
D93*
X20550Y29550D02*
D03*
Y35050D02*
D03*
X36050D02*
D03*
Y29550D02*
D03*
D94*
X32850Y30050D02*
D03*
X25700Y33200D02*
D03*
X23050Y34350D02*
D03*
X27300Y33250D02*
D03*
X24450Y31450D02*
D03*
X23750Y33800D02*
D03*
X29550Y29950D02*
D03*
X31700Y30350D02*
D03*
X34750D02*
D03*
X31800Y30950D02*
D03*
X27900Y33850D02*
D03*
X30800Y34400D02*
D03*
X25350D02*
D03*
X26400Y32148D02*
D03*
X32050Y34450D02*
D03*
X33750Y34150D02*
D03*
X22300Y33400D02*
D03*
X22400Y32900D02*
D03*
X25350Y33450D02*
D03*
X27700Y33350D02*
D03*
X24450Y33250D02*
D03*
X30000Y33000D02*
D03*
X24150Y31200D02*
D03*
X33300Y31300D02*
D03*
X33800Y30650D02*
D03*
X26400Y31600D02*
D03*
X29950Y33350D02*
D03*
X27850Y34650D02*
D03*
X25845Y30155D02*
D03*
X27300Y31100D02*
D03*
X31700Y34650D02*
D03*
X27950Y32547D02*
D03*
X32621Y33850D02*
D03*
X33250D02*
D03*
X25250Y30100D02*
D03*
X32300Y33600D02*
D03*
D95*
X28753Y32645D02*
D03*
X25447Y32003D02*
D03*
X25447Y32397D02*
D03*
X25053Y32397D02*
D03*
X25053Y32003D02*
D03*
X25250Y32200D02*
D03*
X28950Y32350D02*
D03*
X28753Y32055D02*
D03*
X29147D02*
D03*
Y32645D02*
D03*
X32897Y32854D02*
D03*
X32503D02*
D03*
Y32146D02*
D03*
Y32500D02*
D03*
X32897Y32146D02*
D03*
Y32500D02*
D03*
D96*
X23230Y32600D02*
D03*
X24470D02*
D03*
D97*
X27915Y30350D02*
D03*
X28585D02*
D03*
X28585Y30950D02*
D03*
X27915D02*
D03*
D98*
X27894Y31450D02*
D03*
X28406D02*
D03*
M02*
