G04 Layer_Physical_Order=2*
G04 Layer_Color=16765976*
%FSLAX24Y24*%
%MOIN*%
G70*
G01*
G75*
%ADD36O,0.0600X0.0800*%
%ADD38C,0.0600*%
%ADD40C,0.0630*%
%ADD41C,0.0700*%
%ADD43C,0.0270*%
%ADD44C,0.0197*%
G36*
X36126Y35636D02*
X36248Y35599D01*
X36360Y35539D01*
X36458Y35458D01*
X36539Y35360D01*
X36599Y35248D01*
X36636Y35126D01*
X36648Y35004D01*
X36647Y35000D01*
Y29600D01*
X36648Y29596D01*
X36636Y29474D01*
X36599Y29352D01*
X36539Y29240D01*
X36458Y29142D01*
X36360Y29061D01*
X36248Y29001D01*
X36126Y28964D01*
X36004Y28952D01*
X36000Y28953D01*
X35083D01*
X35066Y29000D01*
X35085Y29015D01*
X35149Y29098D01*
X35190Y29196D01*
X35203Y29300D01*
X35190Y29404D01*
X35149Y29502D01*
X35085Y29585D01*
X35002Y29649D01*
X34904Y29690D01*
X34800Y29703D01*
X34696Y29690D01*
X34598Y29649D01*
X34515Y29585D01*
X34451Y29502D01*
X34410Y29404D01*
X34397Y29300D01*
X34410Y29196D01*
X34451Y29098D01*
X34515Y29015D01*
X34534Y29000D01*
X34517Y28953D01*
X34083D01*
X34066Y29000D01*
X34085Y29015D01*
X34149Y29098D01*
X34190Y29196D01*
X34203Y29300D01*
X34190Y29404D01*
X34149Y29502D01*
X34085Y29585D01*
X34002Y29649D01*
X33904Y29690D01*
X33800Y29703D01*
X33696Y29690D01*
X33598Y29649D01*
X33515Y29585D01*
X33451Y29502D01*
X33410Y29404D01*
X33397Y29300D01*
X33410Y29196D01*
X33451Y29098D01*
X33515Y29015D01*
X33534Y29000D01*
X33517Y28953D01*
X33083D01*
X33066Y29000D01*
X33085Y29015D01*
X33149Y29098D01*
X33190Y29196D01*
X33203Y29300D01*
X33190Y29404D01*
X33149Y29502D01*
X33085Y29585D01*
X33002Y29649D01*
X32904Y29690D01*
X32800Y29703D01*
X32696Y29690D01*
X32598Y29649D01*
X32515Y29585D01*
X32451Y29502D01*
X32410Y29404D01*
X32397Y29300D01*
X32410Y29196D01*
X32451Y29098D01*
X32515Y29015D01*
X32534Y29000D01*
X32517Y28953D01*
X32083D01*
X32066Y29000D01*
X32085Y29015D01*
X32149Y29098D01*
X32190Y29196D01*
X32203Y29300D01*
X32190Y29404D01*
X32149Y29502D01*
X32085Y29585D01*
X32002Y29649D01*
X31904Y29690D01*
X31800Y29703D01*
X31696Y29690D01*
X31598Y29649D01*
X31515Y29585D01*
X31451Y29502D01*
X31410Y29404D01*
X31397Y29300D01*
X31410Y29196D01*
X31451Y29098D01*
X31515Y29015D01*
X31534Y29000D01*
X31517Y28953D01*
X31083D01*
X31066Y29000D01*
X31085Y29015D01*
X31149Y29098D01*
X31190Y29196D01*
X31203Y29300D01*
X31190Y29404D01*
X31149Y29502D01*
X31085Y29585D01*
X31002Y29649D01*
X30904Y29690D01*
X30800Y29703D01*
X30696Y29690D01*
X30598Y29649D01*
X30515Y29585D01*
X30451Y29502D01*
X30410Y29404D01*
X30397Y29300D01*
X30410Y29196D01*
X30451Y29098D01*
X30515Y29015D01*
X30534Y29000D01*
X30517Y28953D01*
X30083D01*
X30066Y29000D01*
X30085Y29015D01*
X30149Y29098D01*
X30190Y29196D01*
X30203Y29300D01*
X30190Y29404D01*
X30149Y29502D01*
X30085Y29585D01*
X30002Y29649D01*
X29904Y29690D01*
X29800Y29703D01*
X29696Y29690D01*
X29598Y29649D01*
X29515Y29585D01*
X29451Y29502D01*
X29410Y29404D01*
X29397Y29300D01*
X29410Y29196D01*
X29451Y29098D01*
X29515Y29015D01*
X29534Y29000D01*
X29517Y28953D01*
X29083D01*
X29066Y29000D01*
X29085Y29015D01*
X29149Y29098D01*
X29190Y29196D01*
X29203Y29300D01*
X29190Y29404D01*
X29149Y29502D01*
X29085Y29585D01*
X29002Y29649D01*
X28904Y29690D01*
X28800Y29703D01*
X28696Y29690D01*
X28598Y29649D01*
X28515Y29585D01*
X28451Y29502D01*
X28410Y29404D01*
X28397Y29300D01*
X28410Y29196D01*
X28451Y29098D01*
X28515Y29015D01*
X28534Y29000D01*
X28517Y28953D01*
X28083D01*
X28066Y29000D01*
X28085Y29015D01*
X28149Y29098D01*
X28190Y29196D01*
X28203Y29300D01*
X28190Y29404D01*
X28149Y29502D01*
X28085Y29585D01*
X28002Y29649D01*
X27904Y29690D01*
X27800Y29703D01*
X27696Y29690D01*
X27598Y29649D01*
X27515Y29585D01*
X27451Y29502D01*
X27410Y29404D01*
X27397Y29300D01*
X27410Y29196D01*
X27451Y29098D01*
X27515Y29015D01*
X27534Y29000D01*
X27517Y28953D01*
X27164D01*
X27139Y29003D01*
X27193Y29073D01*
X27238Y29183D01*
X27254Y29300D01*
X27238Y29417D01*
X27193Y29527D01*
X27152Y29581D01*
X26835Y29265D01*
X26800Y29300D01*
X26765Y29265D01*
X26448Y29581D01*
X26407Y29527D01*
X26362Y29417D01*
X26346Y29300D01*
X26362Y29183D01*
X26407Y29073D01*
X26461Y29003D01*
X26436Y28953D01*
X26164D01*
X26139Y29003D01*
X26193Y29073D01*
X26238Y29183D01*
X26254Y29300D01*
X26238Y29417D01*
X26193Y29527D01*
X26152Y29581D01*
X25835Y29265D01*
X25800Y29300D01*
X25765Y29265D01*
X25448Y29581D01*
X25407Y29527D01*
X25362Y29417D01*
X25346Y29300D01*
X25362Y29183D01*
X25407Y29073D01*
X25461Y29003D01*
X25436Y28953D01*
X25083D01*
X25066Y29000D01*
X25085Y29015D01*
X25149Y29098D01*
X25190Y29196D01*
X25203Y29300D01*
X25190Y29404D01*
X25149Y29502D01*
X25085Y29585D01*
X25002Y29649D01*
X24904Y29690D01*
X24800Y29703D01*
X24696Y29690D01*
X24598Y29649D01*
X24515Y29585D01*
X24451Y29502D01*
X24410Y29404D01*
X24397Y29300D01*
X24410Y29196D01*
X24451Y29098D01*
X24515Y29015D01*
X24534Y29000D01*
X24517Y28953D01*
X24083D01*
X24066Y29000D01*
X24085Y29015D01*
X24149Y29098D01*
X24190Y29196D01*
X24203Y29300D01*
X24190Y29404D01*
X24149Y29502D01*
X24085Y29585D01*
X24002Y29649D01*
X23904Y29690D01*
X23800Y29703D01*
X23696Y29690D01*
X23598Y29649D01*
X23515Y29585D01*
X23451Y29502D01*
X23410Y29404D01*
X23397Y29300D01*
X23410Y29196D01*
X23451Y29098D01*
X23515Y29015D01*
X23534Y29000D01*
X23517Y28953D01*
X23083D01*
X23066Y29000D01*
X23085Y29015D01*
X23149Y29098D01*
X23190Y29196D01*
X23203Y29300D01*
X23190Y29404D01*
X23149Y29502D01*
X23085Y29585D01*
X23002Y29649D01*
X22904Y29690D01*
X22800Y29703D01*
X22696Y29690D01*
X22598Y29649D01*
X22515Y29585D01*
X22451Y29502D01*
X22410Y29404D01*
X22397Y29300D01*
X22410Y29196D01*
X22451Y29098D01*
X22515Y29015D01*
X22534Y29000D01*
X22517Y28953D01*
X22083D01*
X22066Y29000D01*
X22085Y29015D01*
X22149Y29098D01*
X22190Y29196D01*
X22203Y29300D01*
X22190Y29404D01*
X22149Y29502D01*
X22085Y29585D01*
X22002Y29649D01*
X21904Y29690D01*
X21800Y29703D01*
X21696Y29690D01*
X21598Y29649D01*
X21515Y29585D01*
X21451Y29502D01*
X21410Y29404D01*
X21397Y29300D01*
X21410Y29196D01*
X21451Y29098D01*
X21515Y29015D01*
X21534Y29000D01*
X21517Y28953D01*
X20600D01*
X20596Y28952D01*
X20474Y28964D01*
X20352Y29001D01*
X20240Y29061D01*
X20142Y29142D01*
X20061Y29240D01*
X20001Y29352D01*
X19964Y29474D01*
X19952Y29596D01*
X19953Y29600D01*
Y31850D01*
X20600D01*
Y32550D01*
X19953D01*
Y35000D01*
X19952Y35004D01*
X19964Y35126D01*
X20001Y35248D01*
X20061Y35360D01*
X20142Y35458D01*
X20240Y35539D01*
X20352Y35599D01*
X20474Y35636D01*
X20596Y35648D01*
X20600Y35647D01*
X21517D01*
X21534Y35600D01*
X21515Y35585D01*
X21451Y35502D01*
X21410Y35404D01*
X21397Y35300D01*
X21410Y35196D01*
X21451Y35098D01*
X21515Y35015D01*
X21598Y34951D01*
X21696Y34910D01*
X21800Y34897D01*
X21904Y34910D01*
X22002Y34951D01*
X22085Y35015D01*
X22149Y35098D01*
X22190Y35196D01*
X22203Y35300D01*
X22190Y35404D01*
X22149Y35502D01*
X22085Y35585D01*
X22066Y35600D01*
X22083Y35647D01*
X22517D01*
X22534Y35600D01*
X22515Y35585D01*
X22451Y35502D01*
X22410Y35404D01*
X22397Y35300D01*
X22410Y35196D01*
X22451Y35098D01*
X22515Y35015D01*
X22598Y34951D01*
X22696Y34910D01*
X22800Y34897D01*
X22904Y34910D01*
X23002Y34951D01*
X23085Y35015D01*
X23149Y35098D01*
X23190Y35196D01*
X23203Y35300D01*
X23190Y35404D01*
X23149Y35502D01*
X23085Y35585D01*
X23066Y35600D01*
X23083Y35647D01*
X23517D01*
X23534Y35600D01*
X23515Y35585D01*
X23451Y35502D01*
X23410Y35404D01*
X23397Y35300D01*
X23410Y35196D01*
X23451Y35098D01*
X23515Y35015D01*
X23598Y34951D01*
X23696Y34910D01*
X23800Y34897D01*
X23904Y34910D01*
X24002Y34951D01*
X24085Y35015D01*
X24149Y35098D01*
X24190Y35196D01*
X24203Y35300D01*
X24190Y35404D01*
X24149Y35502D01*
X24085Y35585D01*
X24066Y35600D01*
X24083Y35647D01*
X24517D01*
X24534Y35600D01*
X24515Y35585D01*
X24451Y35502D01*
X24410Y35404D01*
X24397Y35300D01*
X24410Y35196D01*
X24451Y35098D01*
X24515Y35015D01*
X24598Y34951D01*
X24696Y34910D01*
X24800Y34897D01*
X24904Y34910D01*
X25002Y34951D01*
X25085Y35015D01*
X25149Y35098D01*
X25190Y35196D01*
X25203Y35300D01*
X25190Y35404D01*
X25149Y35502D01*
X25085Y35585D01*
X25066Y35600D01*
X25083Y35647D01*
X25517D01*
X25534Y35600D01*
X25515Y35585D01*
X25451Y35502D01*
X25410Y35404D01*
X25397Y35300D01*
X25410Y35196D01*
X25451Y35098D01*
X25515Y35015D01*
X25598Y34951D01*
X25696Y34910D01*
X25800Y34897D01*
X25904Y34910D01*
X26002Y34951D01*
X26085Y35015D01*
X26149Y35098D01*
X26190Y35196D01*
X26203Y35300D01*
X26190Y35404D01*
X26149Y35502D01*
X26085Y35585D01*
X26066Y35600D01*
X26083Y35647D01*
X26517D01*
X26534Y35600D01*
X26515Y35585D01*
X26451Y35502D01*
X26410Y35404D01*
X26397Y35300D01*
X26410Y35196D01*
X26451Y35098D01*
X26515Y35015D01*
X26598Y34951D01*
X26696Y34910D01*
X26800Y34897D01*
X26904Y34910D01*
X27002Y34951D01*
X27085Y35015D01*
X27149Y35098D01*
X27190Y35196D01*
X27203Y35300D01*
X27190Y35404D01*
X27149Y35502D01*
X27085Y35585D01*
X27066Y35600D01*
X27083Y35647D01*
X27517D01*
X27534Y35600D01*
X27515Y35585D01*
X27451Y35502D01*
X27410Y35404D01*
X27397Y35300D01*
X27410Y35196D01*
X27451Y35098D01*
X27515Y35015D01*
X27598Y34951D01*
X27696Y34910D01*
X27800Y34897D01*
X27904Y34910D01*
X28002Y34951D01*
X28085Y35015D01*
X28149Y35098D01*
X28190Y35196D01*
X28203Y35300D01*
X28190Y35404D01*
X28149Y35502D01*
X28085Y35585D01*
X28066Y35600D01*
X28083Y35647D01*
X28517D01*
X28534Y35600D01*
X28515Y35585D01*
X28451Y35502D01*
X28410Y35404D01*
X28397Y35300D01*
X28410Y35196D01*
X28451Y35098D01*
X28515Y35015D01*
X28598Y34951D01*
X28696Y34910D01*
X28800Y34897D01*
X28904Y34910D01*
X29002Y34951D01*
X29085Y35015D01*
X29149Y35098D01*
X29190Y35196D01*
X29203Y35300D01*
X29190Y35404D01*
X29149Y35502D01*
X29085Y35585D01*
X29066Y35600D01*
X29083Y35647D01*
X29517D01*
X29534Y35600D01*
X29515Y35585D01*
X29451Y35502D01*
X29410Y35404D01*
X29397Y35300D01*
X29410Y35196D01*
X29451Y35098D01*
X29515Y35015D01*
X29598Y34951D01*
X29696Y34910D01*
X29800Y34897D01*
X29904Y34910D01*
X30002Y34951D01*
X30085Y35015D01*
X30149Y35098D01*
X30190Y35196D01*
X30203Y35300D01*
X30190Y35404D01*
X30149Y35502D01*
X30085Y35585D01*
X30066Y35600D01*
X30083Y35647D01*
X30517D01*
X30534Y35600D01*
X30515Y35585D01*
X30451Y35502D01*
X30410Y35404D01*
X30397Y35300D01*
X30410Y35196D01*
X30451Y35098D01*
X30515Y35015D01*
X30598Y34951D01*
X30696Y34910D01*
X30800Y34897D01*
X30904Y34910D01*
X31002Y34951D01*
X31085Y35015D01*
X31149Y35098D01*
X31190Y35196D01*
X31203Y35300D01*
X31190Y35404D01*
X31149Y35502D01*
X31085Y35585D01*
X31066Y35600D01*
X31083Y35647D01*
X31517D01*
X31534Y35600D01*
X31515Y35585D01*
X31451Y35502D01*
X31410Y35404D01*
X31397Y35300D01*
X31410Y35196D01*
X31451Y35098D01*
X31515Y35015D01*
X31598Y34951D01*
X31696Y34910D01*
X31800Y34897D01*
X31904Y34910D01*
X32002Y34951D01*
X32085Y35015D01*
X32149Y35098D01*
X32190Y35196D01*
X32203Y35300D01*
X32190Y35404D01*
X32149Y35502D01*
X32085Y35585D01*
X32066Y35600D01*
X32083Y35647D01*
X32517D01*
X32534Y35600D01*
X32515Y35585D01*
X32451Y35502D01*
X32410Y35404D01*
X32397Y35300D01*
X32410Y35196D01*
X32451Y35098D01*
X32515Y35015D01*
X32598Y34951D01*
X32696Y34910D01*
X32800Y34897D01*
X32904Y34910D01*
X33002Y34951D01*
X33085Y35015D01*
X33149Y35098D01*
X33190Y35196D01*
X33203Y35300D01*
X33190Y35404D01*
X33149Y35502D01*
X33085Y35585D01*
X33066Y35600D01*
X33083Y35647D01*
X33517D01*
X33534Y35600D01*
X33515Y35585D01*
X33451Y35502D01*
X33410Y35404D01*
X33397Y35300D01*
X33410Y35196D01*
X33451Y35098D01*
X33515Y35015D01*
X33598Y34951D01*
X33696Y34910D01*
X33800Y34897D01*
X33904Y34910D01*
X34002Y34951D01*
X34085Y35015D01*
X34149Y35098D01*
X34190Y35196D01*
X34203Y35300D01*
X34190Y35404D01*
X34149Y35502D01*
X34085Y35585D01*
X34066Y35600D01*
X34083Y35647D01*
X34517D01*
X34534Y35600D01*
X34515Y35585D01*
X34451Y35502D01*
X34410Y35404D01*
X34397Y35300D01*
X34410Y35196D01*
X34451Y35098D01*
X34515Y35015D01*
X34598Y34951D01*
X34696Y34910D01*
X34800Y34897D01*
X34904Y34910D01*
X35002Y34951D01*
X35085Y35015D01*
X35149Y35098D01*
X35190Y35196D01*
X35203Y35300D01*
X35190Y35404D01*
X35149Y35502D01*
X35085Y35585D01*
X35066Y35600D01*
X35083Y35647D01*
X36000D01*
X36004Y35648D01*
X36126Y35636D01*
D02*
G37*
%LPC*%
G36*
X26400Y31789D02*
X26328Y31774D01*
X26267Y31733D01*
X26226Y31672D01*
X26211Y31600D01*
X26226Y31528D01*
X26267Y31467D01*
X26328Y31426D01*
X26400Y31411D01*
X26472Y31426D01*
X26533Y31467D01*
X26574Y31528D01*
X26589Y31600D01*
X26574Y31672D01*
X26533Y31733D01*
X26472Y31774D01*
X26400Y31789D01*
D02*
G37*
G36*
X34865Y32223D02*
X34135D01*
Y31493D01*
X34865D01*
Y32223D01*
D02*
G37*
G36*
X21250Y32129D02*
X21005Y31884D01*
X21048Y31851D01*
X21146Y31810D01*
X21250Y31797D01*
X21354Y31810D01*
X21452Y31851D01*
X21495Y31884D01*
X21250Y32129D01*
D02*
G37*
G36*
X24150Y31389D02*
X24078Y31374D01*
X24017Y31333D01*
X23976Y31272D01*
X23961Y31200D01*
X23976Y31128D01*
X24017Y31067D01*
X24078Y31026D01*
X24150Y31011D01*
X24222Y31026D01*
X24283Y31067D01*
X24324Y31128D01*
X24339Y31200D01*
X24324Y31272D01*
X24283Y31333D01*
X24222Y31374D01*
X24150Y31389D01*
D02*
G37*
G36*
X20450Y31353D02*
X20346Y31340D01*
X20248Y31299D01*
X20205Y31266D01*
X20450Y31021D01*
X20695Y31266D01*
X20652Y31299D01*
X20554Y31340D01*
X20450Y31353D01*
D02*
G37*
G36*
X33300Y31489D02*
X33228Y31474D01*
X33167Y31433D01*
X33126Y31372D01*
X33111Y31300D01*
X33126Y31228D01*
X33167Y31167D01*
X33228Y31126D01*
X33300Y31111D01*
X33372Y31126D01*
X33433Y31167D01*
X33474Y31228D01*
X33489Y31300D01*
X33474Y31372D01*
X33433Y31433D01*
X33372Y31474D01*
X33300Y31489D01*
D02*
G37*
G36*
X26400Y32337D02*
X26328Y32323D01*
X26267Y32282D01*
X26226Y32221D01*
X26211Y32148D01*
X26226Y32076D01*
X26267Y32015D01*
X26328Y31974D01*
X26400Y31960D01*
X26472Y31974D01*
X26533Y32015D01*
X26574Y32076D01*
X26589Y32148D01*
X26574Y32221D01*
X26533Y32282D01*
X26472Y32323D01*
X26400Y32337D01*
D02*
G37*
G36*
X21250Y32603D02*
X21146Y32590D01*
X21048Y32549D01*
X21005Y32516D01*
X21250Y32271D01*
X21495Y32516D01*
X21452Y32549D01*
X21354Y32590D01*
X21250Y32603D01*
D02*
G37*
G36*
X27950Y32735D02*
X27878Y32721D01*
X27817Y32680D01*
X27776Y32619D01*
X27761Y32547D01*
X27776Y32475D01*
X27817Y32413D01*
X27878Y32373D01*
X27950Y32358D01*
X28022Y32373D01*
X28083Y32413D01*
X28124Y32475D01*
X28139Y32547D01*
X28124Y32619D01*
X28083Y32680D01*
X28022Y32721D01*
X27950Y32735D01*
D02*
G37*
G36*
X22250Y32553D02*
X22159Y32541D01*
X22073Y32506D01*
X22000Y32450D01*
X21944Y32377D01*
X21909Y32291D01*
X21897Y32200D01*
X21909Y32109D01*
X21944Y32023D01*
X22000Y31950D01*
X22073Y31894D01*
X22159Y31859D01*
X22250Y31847D01*
X22341Y31859D01*
X22427Y31894D01*
X22500Y31950D01*
X22556Y32023D01*
X22591Y32109D01*
X22603Y32200D01*
X22591Y32291D01*
X22556Y32377D01*
X22500Y32450D01*
X22427Y32506D01*
X22341Y32541D01*
X22250Y32553D01*
D02*
G37*
G36*
X20934Y32445D02*
X20901Y32402D01*
X20860Y32304D01*
X20847Y32200D01*
X20860Y32096D01*
X20901Y31998D01*
X20934Y31955D01*
X21179Y32200D01*
X20934Y32445D01*
D02*
G37*
G36*
X21566D02*
X21321Y32200D01*
X21566Y31955D01*
X21599Y31998D01*
X21640Y32096D01*
X21653Y32200D01*
X21640Y32304D01*
X21599Y32402D01*
X21566Y32445D01*
D02*
G37*
G36*
X20766Y31195D02*
X20485Y30915D01*
X20450Y30950D01*
X20415Y30915D01*
X20134Y31195D01*
X20101Y31152D01*
X20060Y31054D01*
X20047Y30950D01*
Y30750D01*
X20060Y30646D01*
X20101Y30548D01*
X20134Y30505D01*
X20415Y30785D01*
X20450Y30750D01*
X20485Y30785D01*
X20766Y30505D01*
X20799Y30548D01*
X20840Y30646D01*
X20853Y30750D01*
Y30950D01*
X20840Y31054D01*
X20799Y31152D01*
X20766Y31195D01*
D02*
G37*
G36*
X26800Y29754D02*
X26683Y29738D01*
X26573Y29693D01*
X26519Y29652D01*
X26800Y29371D01*
X27081Y29652D01*
X27027Y29693D01*
X26917Y29738D01*
X26800Y29754D01*
D02*
G37*
G36*
X29550Y30139D02*
X29478Y30124D01*
X29417Y30083D01*
X29376Y30022D01*
X29361Y29950D01*
X29376Y29878D01*
X29417Y29817D01*
X29478Y29776D01*
X29550Y29761D01*
X29622Y29776D01*
X29683Y29817D01*
X29724Y29878D01*
X29739Y29950D01*
X29724Y30022D01*
X29683Y30083D01*
X29622Y30124D01*
X29550Y30139D01*
D02*
G37*
G36*
X25250Y30289D02*
X25178Y30274D01*
X25117Y30233D01*
X25076Y30172D01*
X25061Y30100D01*
X25076Y30028D01*
X25117Y29967D01*
X25178Y29926D01*
X25250Y29911D01*
X25322Y29926D01*
X25383Y29967D01*
X25424Y30028D01*
X25439Y30100D01*
X25424Y30172D01*
X25383Y30233D01*
X25322Y30274D01*
X25250Y30289D01*
D02*
G37*
G36*
X20550Y30037D02*
X20424Y30021D01*
X20306Y29972D01*
X20205Y29895D01*
X20128Y29794D01*
X20079Y29676D01*
X20063Y29550D01*
X20079Y29424D01*
X20128Y29306D01*
X20205Y29205D01*
X20306Y29128D01*
X20424Y29079D01*
X20550Y29063D01*
X20676Y29079D01*
X20794Y29128D01*
X20895Y29205D01*
X20972Y29306D01*
X21021Y29424D01*
X21037Y29550D01*
X21021Y29676D01*
X20972Y29794D01*
X20895Y29895D01*
X20794Y29972D01*
X20676Y30021D01*
X20550Y30037D01*
D02*
G37*
G36*
X36050D02*
X35924Y30021D01*
X35806Y29972D01*
X35705Y29895D01*
X35628Y29794D01*
X35579Y29676D01*
X35563Y29550D01*
X35579Y29424D01*
X35628Y29306D01*
X35705Y29205D01*
X35806Y29128D01*
X35924Y29079D01*
X36050Y29063D01*
X36176Y29079D01*
X36294Y29128D01*
X36395Y29205D01*
X36472Y29306D01*
X36521Y29424D01*
X36537Y29550D01*
X36521Y29676D01*
X36472Y29794D01*
X36395Y29895D01*
X36294Y29972D01*
X36176Y30021D01*
X36050Y30037D01*
D02*
G37*
G36*
X25800Y29754D02*
X25683Y29738D01*
X25573Y29693D01*
X25519Y29652D01*
X25800Y29371D01*
X26081Y29652D01*
X26027Y29693D01*
X25917Y29738D01*
X25800Y29754D01*
D02*
G37*
G36*
X21450Y31303D02*
X21359Y31291D01*
X21273Y31256D01*
X21200Y31200D01*
X21144Y31127D01*
X21109Y31041D01*
X21097Y30950D01*
Y30750D01*
X21109Y30659D01*
X21144Y30573D01*
X21200Y30500D01*
X21273Y30444D01*
X21359Y30409D01*
X21450Y30397D01*
X21541Y30409D01*
X21627Y30444D01*
X21700Y30500D01*
X21756Y30573D01*
X21791Y30659D01*
X21803Y30750D01*
Y30950D01*
X21791Y31041D01*
X21756Y31127D01*
X21700Y31200D01*
X21627Y31256D01*
X21541Y31291D01*
X21450Y31303D01*
D02*
G37*
G36*
X33800Y30839D02*
X33728Y30824D01*
X33667Y30783D01*
X33626Y30722D01*
X33611Y30650D01*
X33626Y30578D01*
X33667Y30517D01*
X33728Y30476D01*
X33800Y30461D01*
X33872Y30476D01*
X33933Y30517D01*
X33974Y30578D01*
X33989Y30650D01*
X33974Y30722D01*
X33933Y30783D01*
X33872Y30824D01*
X33800Y30839D01*
D02*
G37*
G36*
X31800Y31139D02*
X31728Y31124D01*
X31667Y31083D01*
X31626Y31022D01*
X31611Y30950D01*
X31626Y30878D01*
X31667Y30817D01*
X31728Y30776D01*
X31800Y30761D01*
X31872Y30776D01*
X31933Y30817D01*
X31974Y30878D01*
X31989Y30950D01*
X31974Y31022D01*
X31933Y31083D01*
X31872Y31124D01*
X31800Y31139D01*
D02*
G37*
G36*
X31700Y30539D02*
X31628Y30524D01*
X31567Y30483D01*
X31526Y30422D01*
X31511Y30350D01*
X31526Y30278D01*
X31567Y30217D01*
X31628Y30176D01*
X31700Y30161D01*
X31772Y30176D01*
X31833Y30217D01*
X31874Y30278D01*
X31889Y30350D01*
X31874Y30422D01*
X31833Y30483D01*
X31772Y30524D01*
X31700Y30539D01*
D02*
G37*
G36*
X34750D02*
X34678Y30524D01*
X34617Y30483D01*
X34576Y30422D01*
X34561Y30350D01*
X34576Y30278D01*
X34617Y30217D01*
X34678Y30176D01*
X34750Y30161D01*
X34822Y30176D01*
X34883Y30217D01*
X34924Y30278D01*
X34939Y30350D01*
X34924Y30422D01*
X34883Y30483D01*
X34822Y30524D01*
X34750Y30539D01*
D02*
G37*
G36*
X20450Y30679D02*
X20205Y30434D01*
X20248Y30401D01*
X20346Y30360D01*
X20450Y30347D01*
X20554Y30360D01*
X20652Y30401D01*
X20695Y30434D01*
X20450Y30679D01*
D02*
G37*
G36*
Y34053D02*
X20346Y34040D01*
X20248Y33999D01*
X20205Y33966D01*
X20450Y33721D01*
X20695Y33966D01*
X20652Y33999D01*
X20554Y34040D01*
X20450Y34053D01*
D02*
G37*
G36*
X32621Y34039D02*
X32549Y34024D01*
X32488Y33983D01*
X32447Y33922D01*
X32433Y33850D01*
X32445Y33785D01*
X32428Y33766D01*
X32405Y33752D01*
X32372Y33774D01*
X32300Y33789D01*
X32228Y33774D01*
X32167Y33733D01*
X32126Y33672D01*
X32111Y33600D01*
X32126Y33528D01*
X32167Y33467D01*
X32228Y33426D01*
X32300Y33411D01*
X32372Y33426D01*
X32433Y33467D01*
X32474Y33528D01*
X32489Y33600D01*
X32476Y33665D01*
X32493Y33684D01*
X32516Y33698D01*
X32549Y33676D01*
X32621Y33661D01*
X32693Y33676D01*
X32755Y33717D01*
X32796Y33778D01*
X32810Y33850D01*
X32796Y33922D01*
X32755Y33983D01*
X32693Y34024D01*
X32621Y34039D01*
D02*
G37*
G36*
X33750Y34339D02*
X33678Y34324D01*
X33617Y34283D01*
X33576Y34222D01*
X33561Y34150D01*
X33576Y34078D01*
X33617Y34017D01*
X33678Y33976D01*
X33750Y33961D01*
X33822Y33976D01*
X33883Y34017D01*
X33924Y34078D01*
X33939Y34150D01*
X33924Y34222D01*
X33883Y34283D01*
X33822Y34324D01*
X33750Y34339D01*
D02*
G37*
G36*
X20766Y33895D02*
X20485Y33615D01*
X20450Y33650D01*
X20415Y33615D01*
X20134Y33895D01*
X20101Y33852D01*
X20060Y33754D01*
X20047Y33650D01*
Y33450D01*
X20060Y33346D01*
X20101Y33248D01*
X20134Y33205D01*
X20415Y33485D01*
X20450Y33450D01*
X20485Y33485D01*
X20766Y33205D01*
X20799Y33248D01*
X20840Y33346D01*
X20853Y33450D01*
Y33650D01*
X20840Y33754D01*
X20799Y33852D01*
X20766Y33895D01*
D02*
G37*
G36*
X27900Y34039D02*
X27828Y34024D01*
X27767Y33983D01*
X27726Y33922D01*
X27711Y33850D01*
X27726Y33778D01*
X27767Y33717D01*
X27828Y33676D01*
X27900Y33661D01*
X27972Y33676D01*
X28033Y33717D01*
X28074Y33778D01*
X28089Y33850D01*
X28074Y33922D01*
X28033Y33983D01*
X27972Y34024D01*
X27900Y34039D01*
D02*
G37*
G36*
X33250D02*
X33178Y34024D01*
X33117Y33983D01*
X33076Y33922D01*
X33061Y33850D01*
X33076Y33778D01*
X33117Y33717D01*
X33178Y33676D01*
X33250Y33661D01*
X33322Y33676D01*
X33383Y33717D01*
X33424Y33778D01*
X33439Y33850D01*
X33424Y33922D01*
X33383Y33983D01*
X33322Y34024D01*
X33250Y34039D01*
D02*
G37*
G36*
X31700Y34839D02*
X31628Y34824D01*
X31567Y34783D01*
X31526Y34722D01*
X31511Y34650D01*
X31526Y34578D01*
X31567Y34517D01*
X31628Y34476D01*
X31700Y34461D01*
X31772Y34476D01*
X31833Y34517D01*
X31874Y34578D01*
X31889Y34650D01*
X31874Y34722D01*
X31833Y34783D01*
X31772Y34824D01*
X31700Y34839D01*
D02*
G37*
G36*
X20550Y35537D02*
X20424Y35521D01*
X20306Y35472D01*
X20205Y35395D01*
X20128Y35294D01*
X20079Y35176D01*
X20063Y35050D01*
X20079Y34924D01*
X20128Y34806D01*
X20205Y34705D01*
X20306Y34628D01*
X20424Y34579D01*
X20550Y34563D01*
X20676Y34579D01*
X20794Y34628D01*
X20895Y34705D01*
X20972Y34806D01*
X21021Y34924D01*
X21037Y35050D01*
X21021Y35176D01*
X20972Y35294D01*
X20895Y35395D01*
X20794Y35472D01*
X20676Y35521D01*
X20550Y35537D01*
D02*
G37*
G36*
X36050D02*
X35924Y35521D01*
X35806Y35472D01*
X35705Y35395D01*
X35628Y35294D01*
X35579Y35176D01*
X35563Y35050D01*
X35579Y34924D01*
X35628Y34806D01*
X35705Y34705D01*
X35806Y34628D01*
X35924Y34579D01*
X36050Y34563D01*
X36176Y34579D01*
X36294Y34628D01*
X36395Y34705D01*
X36472Y34806D01*
X36521Y34924D01*
X36537Y35050D01*
X36521Y35176D01*
X36472Y35294D01*
X36395Y35395D01*
X36294Y35472D01*
X36176Y35521D01*
X36050Y35537D01*
D02*
G37*
G36*
X25350Y34589D02*
X25278Y34574D01*
X25217Y34533D01*
X25176Y34472D01*
X25161Y34400D01*
X25176Y34328D01*
X25217Y34267D01*
X25278Y34226D01*
X25350Y34211D01*
X25422Y34226D01*
X25483Y34267D01*
X25524Y34328D01*
X25539Y34400D01*
X25524Y34472D01*
X25483Y34533D01*
X25422Y34574D01*
X25350Y34589D01*
D02*
G37*
G36*
X30800D02*
X30728Y34574D01*
X30667Y34533D01*
X30626Y34472D01*
X30611Y34400D01*
X30626Y34328D01*
X30667Y34267D01*
X30728Y34226D01*
X30800Y34211D01*
X30872Y34226D01*
X30933Y34267D01*
X30974Y34328D01*
X30989Y34400D01*
X30974Y34472D01*
X30933Y34533D01*
X30872Y34574D01*
X30800Y34589D01*
D02*
G37*
G36*
X27850Y34839D02*
X27778Y34824D01*
X27717Y34783D01*
X27676Y34722D01*
X27661Y34650D01*
X27676Y34578D01*
X27717Y34517D01*
X27778Y34476D01*
X27850Y34461D01*
X27922Y34476D01*
X27983Y34517D01*
X28024Y34578D01*
X28039Y34650D01*
X28024Y34722D01*
X27983Y34783D01*
X27922Y34824D01*
X27850Y34839D01*
D02*
G37*
G36*
X23750Y33989D02*
X23678Y33974D01*
X23617Y33933D01*
X23576Y33872D01*
X23561Y33800D01*
X23576Y33728D01*
X23617Y33667D01*
X23678Y33626D01*
X23750Y33611D01*
X23822Y33626D01*
X23883Y33667D01*
X23924Y33728D01*
X23939Y33800D01*
X23924Y33872D01*
X23883Y33933D01*
X23822Y33974D01*
X23750Y33989D01*
D02*
G37*
G36*
X29950Y33539D02*
X29878Y33524D01*
X29817Y33483D01*
X29776Y33422D01*
X29761Y33350D01*
X29776Y33278D01*
X29817Y33217D01*
X29859Y33188D01*
X29866Y33137D01*
X29864Y33129D01*
X29826Y33072D01*
X29811Y33000D01*
X29826Y32928D01*
X29867Y32867D01*
X29928Y32826D01*
X30000Y32811D01*
X30072Y32826D01*
X30133Y32867D01*
X30174Y32928D01*
X30189Y33000D01*
X30174Y33072D01*
X30133Y33133D01*
X30091Y33162D01*
X30084Y33213D01*
X30086Y33221D01*
X30124Y33278D01*
X30139Y33350D01*
X30124Y33422D01*
X30083Y33483D01*
X30022Y33524D01*
X29950Y33539D01*
D02*
G37*
G36*
X34500Y33261D02*
X34392Y33246D01*
X34291Y33205D01*
X34244Y33169D01*
X34500Y32913D01*
X34756Y33169D01*
X34709Y33205D01*
X34608Y33246D01*
X34500Y33261D01*
D02*
G37*
G36*
X25700Y33389D02*
X25628Y33374D01*
X25567Y33333D01*
X25526Y33272D01*
X25511Y33200D01*
X25526Y33128D01*
X25567Y33067D01*
X25628Y33026D01*
X25700Y33011D01*
X25772Y33026D01*
X25833Y33067D01*
X25874Y33128D01*
X25889Y33200D01*
X25874Y33272D01*
X25833Y33333D01*
X25772Y33374D01*
X25700Y33389D01*
D02*
G37*
G36*
X34500Y32771D02*
X34244Y32515D01*
X34291Y32480D01*
X34392Y32438D01*
X34500Y32424D01*
X34608Y32438D01*
X34709Y32480D01*
X34756Y32515D01*
X34500Y32771D01*
D02*
G37*
G36*
X34173Y33098D02*
X34138Y33051D01*
X34096Y32950D01*
X34081Y32842D01*
X34096Y32734D01*
X34138Y32633D01*
X34173Y32586D01*
X34429Y32842D01*
X34173Y33098D01*
D02*
G37*
G36*
X34827D02*
X34571Y32842D01*
X34827Y32586D01*
X34862Y32633D01*
X34904Y32734D01*
X34919Y32842D01*
X34904Y32950D01*
X34862Y33051D01*
X34827Y33098D01*
D02*
G37*
G36*
X27700Y33539D02*
X27628Y33524D01*
X27567Y33483D01*
X27526Y33422D01*
X27511Y33350D01*
X27526Y33278D01*
X27567Y33217D01*
X27628Y33176D01*
X27700Y33161D01*
X27772Y33176D01*
X27833Y33217D01*
X27874Y33278D01*
X27889Y33350D01*
X27874Y33422D01*
X27833Y33483D01*
X27772Y33524D01*
X27700Y33539D01*
D02*
G37*
G36*
X22300Y33589D02*
X22228Y33574D01*
X22167Y33533D01*
X22126Y33472D01*
X22111Y33400D01*
X22126Y33328D01*
X22167Y33267D01*
X22228Y33226D01*
X22300Y33211D01*
X22372Y33226D01*
X22433Y33267D01*
X22474Y33328D01*
X22489Y33400D01*
X22474Y33472D01*
X22433Y33533D01*
X22372Y33574D01*
X22300Y33589D01*
D02*
G37*
G36*
X25350Y33639D02*
X25278Y33624D01*
X25217Y33583D01*
X25176Y33522D01*
X25161Y33450D01*
X25176Y33378D01*
X25217Y33317D01*
X25278Y33276D01*
X25350Y33261D01*
X25422Y33276D01*
X25483Y33317D01*
X25524Y33378D01*
X25539Y33450D01*
X25524Y33522D01*
X25483Y33583D01*
X25422Y33624D01*
X25350Y33639D01*
D02*
G37*
G36*
X20450Y33379D02*
X20205Y33134D01*
X20248Y33101D01*
X20346Y33060D01*
X20450Y33047D01*
X20554Y33060D01*
X20652Y33101D01*
X20695Y33134D01*
X20450Y33379D01*
D02*
G37*
G36*
X24450Y33439D02*
X24378Y33424D01*
X24317Y33383D01*
X24276Y33322D01*
X24261Y33250D01*
X24276Y33178D01*
X24317Y33117D01*
X24378Y33076D01*
X24450Y33061D01*
X24522Y33076D01*
X24583Y33117D01*
X24624Y33178D01*
X24639Y33250D01*
X24624Y33322D01*
X24583Y33383D01*
X24522Y33424D01*
X24450Y33439D01*
D02*
G37*
G36*
X21450Y34003D02*
X21359Y33991D01*
X21273Y33956D01*
X21200Y33900D01*
X21144Y33827D01*
X21109Y33741D01*
X21097Y33650D01*
Y33450D01*
X21109Y33359D01*
X21144Y33273D01*
X21200Y33200D01*
X21273Y33144D01*
X21359Y33109D01*
X21450Y33097D01*
X21541Y33109D01*
X21627Y33144D01*
X21700Y33200D01*
X21756Y33273D01*
X21791Y33359D01*
X21803Y33450D01*
Y33650D01*
X21791Y33741D01*
X21756Y33827D01*
X21700Y33900D01*
X21627Y33956D01*
X21541Y33991D01*
X21450Y34003D01*
D02*
G37*
%LPD*%
D36*
X20450Y30850D02*
D03*
Y33550D02*
D03*
D38*
X21250Y32200D02*
D03*
D40*
X34500Y32842D02*
D03*
D41*
X25800Y29300D02*
D03*
X26800D02*
D03*
D43*
X32850Y30050D02*
D03*
X23050Y34350D02*
D03*
X27300Y33250D02*
D03*
X24450Y31450D02*
D03*
X32050Y34450D02*
D03*
X22400Y32900D02*
D03*
X25845Y30155D02*
D03*
X27300Y31100D02*
D03*
D44*
X28753Y32645D02*
D03*
X25447Y32003D02*
D03*
X25447Y32397D02*
D03*
X25053Y32397D02*
D03*
X25053Y32003D02*
D03*
X25250Y32200D02*
D03*
X28950Y32350D02*
D03*
X28753Y32055D02*
D03*
X29147D02*
D03*
Y32645D02*
D03*
X32897Y32854D02*
D03*
X32503D02*
D03*
Y32146D02*
D03*
Y32500D02*
D03*
X32897Y32146D02*
D03*
Y32500D02*
D03*
M02*
