G04 Layer_Physical_Order=1*
G04 Layer_Color=25308*
%FSLAX24Y24*%
%MOIN*%
G70*
G01*
G75*
%ADD10R,0.0394X0.0413*%
%ADD11R,0.0295X0.0335*%
%ADD12R,0.0413X0.0394*%
%ADD13C,0.0500*%
%ADD14R,0.0670X0.0450*%
%ADD15R,0.0315X0.0315*%
%ADD16O,0.0110X0.0335*%
%ADD17O,0.0335X0.0110*%
%ADD18R,0.0669X0.0669*%
%ADD19R,0.0335X0.0295*%
%ADD20R,0.0591X0.0354*%
%ADD21R,0.0532X0.0610*%
%ADD22C,0.0394*%
%ADD23R,0.0276X0.0335*%
%ADD24R,0.0335X0.0276*%
%ADD25R,0.0374X0.0335*%
%ADD26R,0.0110X0.0276*%
%ADD27R,0.0650X0.0945*%
%ADD28R,0.0413X0.0374*%
%ADD29R,0.0374X0.0413*%
%ADD30R,0.1181X0.0236*%
%ADD31O,0.0079X0.0335*%
%ADD32R,0.0768X0.0965*%
%ADD33C,0.0100*%
%ADD34R,0.0350X0.0313*%
%ADD35R,0.0300X0.0350*%
%ADD36O,0.0600X0.0800*%
%ADD37R,0.0600X0.0600*%
%ADD38C,0.0600*%
%ADD39R,0.0630X0.0630*%
%ADD40C,0.0630*%
%ADD41C,0.0700*%
%ADD42C,0.0866*%
%ADD43C,0.0270*%
%ADD44C,0.0197*%
G36*
X33350Y32884D02*
X33084D01*
Y32116D01*
X33350D01*
X33350Y32018D01*
X32050D01*
Y32116D01*
X32316D01*
Y32884D01*
X32050D01*
Y32982D01*
X33350D01*
Y32884D01*
D02*
G37*
G36*
X31837Y32450D02*
X31837Y32110D01*
X31601Y31873D01*
X30499Y31873D01*
X30263Y32109D01*
X30263Y32450D01*
X30550Y32450D01*
X30824Y32176D01*
X31276D01*
X31550Y32450D01*
X31837Y32450D01*
D02*
G37*
G36*
X31601Y33527D02*
X31837Y33291D01*
X31837Y32950D01*
X31550Y32950D01*
X31276Y33224D01*
X30824D01*
X30550Y32950D01*
X30263Y32950D01*
X30263Y33290D01*
X30499Y33527D01*
X31601Y33527D01*
D02*
G37*
D10*
X32850Y30505D02*
D03*
Y31095D02*
D03*
X28900Y34045D02*
D03*
X29400Y30705D02*
D03*
Y31295D02*
D03*
X27900Y30705D02*
D03*
Y31295D02*
D03*
D03*
Y30705D02*
D03*
X29500Y33455D02*
D03*
Y34045D02*
D03*
D03*
Y33455D02*
D03*
D11*
X24214Y33700D02*
D03*
X24686D02*
D03*
D12*
X26745Y33250D02*
D03*
X26155Y33250D02*
D03*
D03*
X26745Y33250D02*
D03*
X25845Y30650D02*
D03*
X25255D02*
D03*
D03*
X25845D02*
D03*
X28900Y33455D02*
D03*
D13*
X31100Y30150D02*
D03*
Y31350D02*
D03*
D14*
X30350Y30130D02*
D03*
Y31370D02*
D03*
D15*
X24150Y30795D02*
D03*
Y30205D02*
D03*
X23700Y30805D02*
D03*
Y31395D02*
D03*
D16*
X25545Y32781D02*
D03*
X25348D02*
D03*
X25152D02*
D03*
X24955D02*
D03*
Y31619D02*
D03*
X25152D02*
D03*
X25348D02*
D03*
X25545D02*
D03*
D17*
X24669Y32495D02*
D03*
Y32298D02*
D03*
Y32102D02*
D03*
Y31905D02*
D03*
X25831D02*
D03*
Y32102D02*
D03*
Y32298D02*
D03*
Y32495D02*
D03*
X28369Y31956D02*
D03*
Y32153D02*
D03*
Y32350D02*
D03*
Y32547D02*
D03*
Y32744D02*
D03*
X29531D02*
D03*
Y32547D02*
D03*
Y32350D02*
D03*
Y32153D02*
D03*
Y31956D02*
D03*
D18*
X25250Y32200D02*
D03*
D19*
X28350Y34086D02*
D03*
Y33614D02*
D03*
D20*
X27110Y34395D02*
D03*
Y33805D02*
D03*
X25890Y34395D02*
D03*
Y33805D02*
D03*
D21*
X23616Y34350D02*
D03*
X24384D02*
D03*
D22*
X27200Y30350D02*
D03*
D23*
X26658Y32700D02*
D03*
X27150D02*
D03*
X23704Y31850D02*
D03*
X24196D02*
D03*
X26204Y31100D02*
D03*
X26696D02*
D03*
D24*
X24650Y30204D02*
D03*
Y30696D02*
D03*
D25*
X23000Y31656D02*
D03*
Y31144D02*
D03*
X22850Y33144D02*
D03*
Y33656D02*
D03*
D26*
X28850Y32960D02*
D03*
X29050D02*
D03*
X28850Y31740D02*
D03*
X29050D02*
D03*
D27*
X28950Y32350D02*
D03*
D28*
X28700Y31285D02*
D03*
Y30715D02*
D03*
D29*
X27885Y31950D02*
D03*
X27315D02*
D03*
D30*
X31050Y32031D02*
D03*
X31050Y33369D02*
D03*
D31*
X32306Y31722D02*
D03*
X32464D02*
D03*
X32621D02*
D03*
X32779D02*
D03*
X32936D02*
D03*
X33094D02*
D03*
Y33278D02*
D03*
X32936D02*
D03*
X32779D02*
D03*
X32621D02*
D03*
X32464D02*
D03*
X32306D02*
D03*
D32*
X32700Y32500D02*
D03*
D33*
X32850Y31095D02*
Y31350D01*
X32936Y31436D01*
Y31722D01*
X33800Y29500D02*
Y30650D01*
X32850Y30050D02*
Y30505D01*
X28136Y34086D02*
X28350D01*
X27900Y33850D02*
X28136Y34086D01*
X25700Y33150D02*
Y33200D01*
X25545Y32995D02*
X25700Y33150D01*
X25545Y32781D02*
Y32995D01*
X23050Y34350D02*
X23466D01*
X23616Y34200D01*
X26745Y33250D02*
X27300D01*
X26745Y33250D02*
X26745Y33250D01*
X29050Y32450D02*
Y32960D01*
X28950Y32350D02*
X29050Y32450D01*
X28850Y33010D02*
Y33455D01*
X28900D02*
X29500D01*
X28409Y34045D02*
X28900D01*
X29500D01*
X24384Y34350D02*
X24434Y34300D01*
X24800D01*
X25295Y33805D01*
X25100Y33700D02*
X25350Y33450D01*
X24786Y33700D02*
X25100D01*
X24686Y33600D02*
X24786Y33700D01*
X23850D02*
X24214D01*
X23750Y33800D02*
X23850Y33700D01*
X23750Y33750D02*
Y33800D01*
X28350Y32763D02*
Y33464D01*
X32779Y32028D02*
X32897Y32146D01*
X32779Y31722D02*
Y32028D01*
X32503Y32146D02*
X32621Y32028D01*
Y31722D02*
Y32028D01*
X32779Y32972D02*
X32897Y32854D01*
X32779Y32972D02*
Y33278D01*
X32464Y32894D02*
X32503Y32854D01*
X32464Y32894D02*
Y33278D01*
X29550Y29950D02*
X29730Y30130D01*
X30350D01*
X31080Y31370D02*
X31250Y31200D01*
X30350Y31370D02*
X31080D01*
Y30130D02*
X31100Y30150D01*
X30350Y30130D02*
X31080D01*
X26453Y32495D02*
X26658Y32700D01*
X25831Y32495D02*
X26453D01*
X27150Y32700D02*
X27315Y32535D01*
Y31950D02*
Y32535D01*
X27674Y30755D02*
X27900D01*
X27950Y30705D01*
X29400D01*
X30330Y31350D02*
Y31470D01*
X30275Y31295D02*
X30330Y31350D01*
X29400Y31295D02*
X30275D01*
X29390Y31285D02*
X29400Y31295D01*
X28700Y31285D02*
X29390D01*
X27960D02*
X28700D01*
X27885Y31360D02*
X27960Y31285D01*
X27885Y31360D02*
Y31950D01*
X28363D01*
X29844Y31956D02*
X30330Y31470D01*
X29531Y31956D02*
X29844D01*
X23000Y31144D02*
X23339Y30805D01*
X23700D01*
X23000Y31656D02*
X23643Y32298D01*
X24669D01*
X20744Y31656D02*
X23000D01*
X20350Y32050D02*
X20744Y31656D01*
X20200Y32050D02*
X20350D01*
X23704Y31449D02*
Y31850D01*
X24150Y30795D02*
Y31200D01*
X23700Y30805D02*
X24141D01*
X24146Y31750D02*
Y31796D01*
X24452Y32102D01*
X24669D01*
X25855Y33450D02*
X26055Y33250D01*
X25350Y33450D02*
X25855D01*
X22850Y32850D02*
Y33144D01*
X22200Y32200D02*
X22850Y32850D01*
Y33144D02*
X23494D01*
X23500Y33150D01*
X24155Y32495D01*
X31700Y30350D02*
Y30400D01*
X32464Y31164D01*
X34750Y29350D02*
Y30350D01*
X31800Y30950D02*
Y31000D01*
X32300Y31500D01*
Y31716D01*
X30800Y34400D02*
Y35060D01*
X30750Y35110D02*
X30800Y35060D01*
X25795Y34395D02*
X25890D01*
X25350Y34400D02*
X25885D01*
X25750Y34350D02*
X25795Y34395D01*
X25350Y34350D02*
Y34400D01*
X26250Y32298D02*
X26400Y32148D01*
X25831Y32298D02*
X26250D01*
X25250Y32200D02*
X25348Y32102D01*
X25150Y32782D02*
Y33250D01*
X25350Y33450D01*
X32936Y33278D02*
Y33986D01*
X33100Y34150D01*
X33750D01*
X27700Y33350D02*
Y33550D01*
X27445Y33805D02*
X27700Y33550D01*
X27110Y33805D02*
X27445D01*
X22556Y33656D02*
X22850D01*
X22300Y33400D02*
X22556Y33656D01*
X25350Y32782D02*
Y33450D01*
X33094Y33278D02*
Y33694D01*
X27110Y34395D02*
X27595D01*
X24650Y31150D02*
X24955Y31455D01*
Y31619D01*
X24450Y33250D02*
X24800D01*
X24955Y33095D01*
Y32781D02*
Y33095D01*
X22100Y32300D02*
X22200Y32200D01*
X29850Y32350D02*
X30169Y32031D01*
X29531Y32350D02*
X29850D01*
X30800Y35300D02*
X30940Y35160D01*
X27800Y29300D02*
Y29560D01*
X29531Y32744D02*
X29744D01*
X30000Y33000D01*
X24650Y30846D02*
Y31150D01*
X24150Y30204D02*
X24650D01*
X24155Y32495D02*
X24669D01*
X25295Y33805D02*
X25890D01*
X26095Y31905D02*
X26400Y31600D01*
X25831Y31905D02*
X26095D01*
X33094Y31506D02*
Y31722D01*
Y31506D02*
X33300Y31300D01*
X30330Y31350D02*
X30350Y31370D01*
X29950Y33350D02*
X30300Y33700D01*
Y34800D01*
X29800Y35300D02*
X30300Y34800D01*
X27595Y34395D02*
X27850Y34650D01*
X32464Y31164D02*
Y31722D01*
X25845Y30155D02*
Y30650D01*
X25545Y31305D02*
Y31619D01*
Y31305D02*
X25750Y31100D01*
X26204D01*
X26696D02*
X26700Y31096D01*
X26704Y31100D01*
X27300D01*
X31750Y35350D02*
X31800Y35300D01*
X31700D02*
X31750Y35350D01*
X31700Y34650D02*
Y35300D01*
X24669Y31905D02*
X24955D01*
X25250Y32200D01*
X25348Y32102D02*
X25831D01*
X28369Y32350D02*
X28950D01*
X28369Y32153D02*
X28753D01*
X28850Y31740D02*
Y32055D01*
X28753Y32153D02*
X28950Y32350D01*
X27950Y32547D02*
X28369D01*
X29147D02*
X29531D01*
X29050Y31740D02*
Y32250D01*
X33094Y33694D02*
X33250Y33850D01*
X30169Y32031D02*
X31050D01*
X30000Y33000D02*
X30369Y33369D01*
X31050D01*
X27315Y31115D02*
Y31950D01*
Y31115D02*
X27674Y30755D01*
X25255Y30105D02*
Y30650D01*
X21650Y29450D02*
X21800Y29300D01*
X25255Y30650D02*
Y31516D01*
X21450Y30700D02*
Y30850D01*
Y30700D02*
X21650Y30500D01*
Y29450D02*
Y30500D01*
X32621Y33278D02*
Y33850D01*
X32300Y33284D02*
Y33600D01*
D34*
X29525Y32057D02*
D03*
D35*
X25250Y31625D02*
D03*
D36*
X21450Y30850D02*
D03*
X20450D02*
D03*
Y33550D02*
D03*
X21450D02*
D03*
D37*
X20250Y32200D02*
D03*
D38*
X21250D02*
D03*
X22250D02*
D03*
D39*
X34500Y31858D02*
D03*
D40*
Y32842D02*
D03*
D41*
X34800Y29300D02*
D03*
X33800D02*
D03*
X32800D02*
D03*
X31800D02*
D03*
X30800D02*
D03*
X29800D02*
D03*
X21800Y35300D02*
D03*
X22800D02*
D03*
X23800D02*
D03*
X24800D02*
D03*
X25800D02*
D03*
X26800D02*
D03*
X21800Y29300D02*
D03*
X22800D02*
D03*
X23800D02*
D03*
X24800D02*
D03*
X25800D02*
D03*
X26800D02*
D03*
X27800D02*
D03*
X28800D02*
D03*
X27800Y35300D02*
D03*
X28800D02*
D03*
X29800D02*
D03*
X30800D02*
D03*
X31800D02*
D03*
X32800D02*
D03*
X33800D02*
D03*
X34800D02*
D03*
D42*
X20550Y29550D02*
D03*
Y35050D02*
D03*
X36050D02*
D03*
Y29550D02*
D03*
D43*
X32850Y30050D02*
D03*
X25700Y33200D02*
D03*
X23050Y34350D02*
D03*
X27300Y33250D02*
D03*
X24450Y31450D02*
D03*
X23750Y33800D02*
D03*
X29550Y29950D02*
D03*
X31700Y30350D02*
D03*
X34750D02*
D03*
X31800Y30950D02*
D03*
X27900Y33850D02*
D03*
X30800Y34400D02*
D03*
X25350D02*
D03*
X26400Y32148D02*
D03*
X32050Y34450D02*
D03*
X33750Y34150D02*
D03*
X22300Y33400D02*
D03*
X22400Y32900D02*
D03*
X25350Y33450D02*
D03*
X27700Y33350D02*
D03*
X24450Y33250D02*
D03*
X30000Y33000D02*
D03*
X24150Y31200D02*
D03*
X33300Y31300D02*
D03*
X33800Y30650D02*
D03*
X26400Y31600D02*
D03*
X29950Y33350D02*
D03*
X27850Y34650D02*
D03*
X25845Y30155D02*
D03*
X27300Y31100D02*
D03*
X31700Y34650D02*
D03*
X27950Y32547D02*
D03*
X32621Y33850D02*
D03*
X33250D02*
D03*
X25250Y30100D02*
D03*
X32300Y33600D02*
D03*
D44*
X28753Y32645D02*
D03*
X25447Y32003D02*
D03*
X25447Y32397D02*
D03*
X25053Y32397D02*
D03*
X25053Y32003D02*
D03*
X25250Y32200D02*
D03*
X28950Y32350D02*
D03*
X28753Y32055D02*
D03*
X29147D02*
D03*
Y32645D02*
D03*
X32897Y32854D02*
D03*
X32503D02*
D03*
Y32146D02*
D03*
Y32500D02*
D03*
X32897Y32146D02*
D03*
Y32500D02*
D03*
M02*
